<svg width="258" height="67" viewBox="0 0 258 67" fill="none" xmlns="http://www.w3.org/2000/svg">
<path d="M5.33087 27.2073C5.54819 26.7854 5.54819 25.98 5.54819 25.49C5.60359 24.2074 5.71438 23.0228 5.8763 21.7402C6.29815 19.0642 6.14901 16.6524 6.04248 14.1298C5.61637 14.8244 5.12634 15.519 4.70449 16.2135L4.75988 16.4351C4.81102 17.4578 4.81102 18.4677 4.75988 19.4903C4.5937 21.8467 4.33377 24.25 4.06106 26.6107V26.7172L3.95453 26.7726C2.77845 27.1945 1.59386 27.6334 0.477439 28.1106C0.366648 28.5325 0.311254 29.0225 0.255859 29.4997C0.681973 29.2824 1.06121 29.1205 1.48307 29.0225C2.28842 28.6944 4.85363 27.9615 5.34366 27.1945L5.33087 27.2073Z" fill="#3D3D3D"/>
<mask id="mask0_2307_26186" style="mask-type:luminance" maskUnits="userSpaceOnUse" x="0" y="9" width="11" height="26">
<path d="M0 9.73657H10.0094V34.8261H0V9.73657Z" fill="white"/>
</mask>
<g mask="url(#mask0_2307_26186)">
<path d="M2.05902 32.7339C2.11441 32.6785 2.22094 32.6231 2.22094 32.6231L4.84154 31.2894C6.23067 30.5906 7.89677 29.6233 8.53595 28.068C8.91945 27.1561 8.96206 26.1462 8.96206 25.1789C9.01319 23.6236 8.96206 22.1748 9.06859 20.6195C9.23477 17.837 9.76315 13.7037 9.54584 9.91553C9.06859 10.4439 8.57856 10.9382 8.10131 11.4708C8.10131 12.8046 8.04591 14.0318 7.99052 15.0033C7.93512 17.7858 7.71781 20.5684 7.56867 23.3637C7.51327 24.5355 7.62406 27.0581 7.03603 28.0808C6.55878 28.9415 5.31879 29.5295 4.45804 29.9514C3.28623 30.5394 1.62012 31.3405 0.0690667 32.2567C0.0690667 32.5848 0.0136719 32.8958 0.0136719 33.2239C0.0136719 33.5521 0.0690667 33.7012 0.0690667 33.9185C0.708237 33.5521 1.34741 33.1686 2.04623 32.7467L2.05902 32.7339Z" fill="#3D3D3D"/>
</g>
<mask id="mask1_2307_26186" style="mask-type:luminance" maskUnits="userSpaceOnUse" x="0" y="7" width="13" height="31">
<path d="M0 7.55499H12.1911V37.008H0V7.55499Z" fill="white"/>
</mask>
<g mask="url(#mask1_2307_26186)">
<path d="M9.55685 32.5167C10.3622 32.1332 11.0056 31.6559 11.4403 30.8506C12.301 29.1333 11.8621 26.0781 11.9175 24.1521C12.1348 18.685 12.301 13.1754 12.0283 7.64868C11.5511 8.07053 11.0568 8.45404 10.6349 8.87589C10.6903 10.2139 10.8011 11.5519 10.8011 12.8856C10.8522 15.6681 10.8011 18.4507 10.8011 21.2502C10.7457 23.0229 10.7457 24.8381 10.6349 26.6107C10.5795 27.6334 10.5795 29.0225 10.3622 29.977L10.3068 30.0324C9.28413 31.477 7.47315 31.6985 5.86244 32.1758C3.71909 32.815 1.94646 33.6757 0.0800781 34.8475C0.135473 35.4356 0.186607 36.0193 0.242001 36.6202C0.663854 36.1983 1.10275 35.7594 1.68653 35.4483C4.30713 33.9484 6.88511 33.6757 9.55685 32.4996V32.5167Z" fill="#3D3D3D"/>
</g>
<path d="M7.15857 37.0163C8.65849 36.5391 10.1584 36.1556 11.6583 35.7891C12.3572 35.6229 13.3798 35.4056 13.9125 34.9284C14.4409 34.3957 14.607 33.4838 14.7136 32.7339C14.9351 31.1232 14.9351 29.3079 14.9863 27.6461C15.0417 24.2201 15.6297 13.448 15.0417 5.46686C14.5644 5.73957 14.1298 6.0549 13.6525 6.43414C13.9636 12.1654 13.8699 18.0031 13.6525 23.7429C13.5971 26.2143 13.5971 28.7241 13.4864 31.136C13.431 31.9413 13.431 33.2793 12.7918 33.8673C12.2592 34.3446 10.9638 34.5065 10.2692 34.6684C8.34743 35.0519 6.57053 35.64 4.7979 36.4453C3.13606 37.1953 1.74266 38.1626 0.681641 39.6071C0.843563 40.3017 0.954353 40.9451 1.10349 41.5843C2.27531 39.5006 4.04794 38.1072 7.15857 37.0291V37.0163Z" fill="#3D3D3D"/>
<path d="M43.7955 11.7265C43.5782 14.2534 44.6008 18.3696 45.1335 20.9348C45.6107 23.2401 46.7399 25.5454 48.9898 26.4445C50.7113 27.1391 52.6331 26.8663 54.2438 26.0226C55.1003 25.49 56.1656 24.4673 56.711 23.6066C58.2663 21.1394 59.4935 17.8796 60.1369 15.0971C60.1881 14.7136 60.2989 14.3471 60.3543 14.019C60.0389 13.5418 59.7108 13.1071 59.387 12.681C59.0589 14.1298 58.4708 15.5743 57.8828 17.2404C56.809 20.1295 56.0036 24.0455 52.5777 25.0554C50.2724 26.0226 47.7626 24.6292 46.9572 22.3794C46.1008 20.0741 46.2073 17.5643 45.4062 15.259V15.2079C45.1335 10.7592 45.1846 8.78207 49.156 5.83762C49.6332 5.45412 50.1233 5.19419 50.6559 4.92148C50.1787 4.59337 49.6886 4.33344 49.2625 4.06073C46.3735 5.83762 43.9574 8.9866 43.7955 11.7265Z" fill="#3D3D3D"/>
<path d="M41.1635 16.8699C41.3808 18.7533 41.6962 21.2631 42.2416 23.0358C43.4688 27.1563 44.3849 28.6562 48.5012 30.1561C50.5892 30.9061 52.7325 31.1234 54.7225 29.9899C58.5831 27.7401 60.083 21.3697 62.5928 17.8372L62.6482 17.786C62.3755 17.3088 62.1155 16.8145 61.8428 16.3373C61.5275 16.8145 61.1483 17.2534 60.7648 17.8372C58.5149 21.1523 57.4496 27.2628 53.4271 28.9289C50.4272 30.1007 46.3067 28.5582 44.7514 25.7629C43.1961 22.925 42.9234 19.1198 42.5569 15.958C41.9689 11.4029 41.4235 9.95407 44.4233 6.25966C45.5014 4.92167 46.1959 3.8436 47.0439 2.98711C46.6604 2.82093 46.2385 2.61639 45.8678 2.45447C43.6733 4.70435 41.1081 7.32069 40.7289 10.5421C40.5073 12.2593 40.9462 15.1527 41.1507 16.8571L41.1635 16.8699Z" fill="#3D3D3D"/>
<path d="M1.96069 25.4518C2.65952 24.3738 2.60413 22.5031 2.43794 20.7859C1.74338 22.5585 1.1596 24.4249 0.720703 26.4063C1.19795 26.1847 1.63685 25.8737 1.94791 25.4348L1.96069 25.4518Z" fill="#3D3D3D"/>
<path d="M52.6342 18.4806C54.7222 17.4025 56.5502 9.31485 53.4396 9.11032C50.1244 8.94413 49.4171 17.8925 52.6342 18.4806ZM53.1115 15.4807L52.8942 16.7079C52.4169 16.4352 52.5106 16.7633 52.4553 17.2406L52.1442 15.5191C52.3061 13.5973 52.0334 12.63 52.8942 10.7466L53.0049 10.4739L53.2223 10.7466C54.0276 11.9738 53.3288 14.0618 53.1115 15.4637V15.4807Z" fill="#3D3D3D"/>
<path d="M49.0876 8.08763C46.727 10.7594 47.6943 13.12 47.805 16.2818C47.9158 18.2078 47.5323 19.1197 48.555 20.9477C51.3929 25.929 55.4154 21.2758 56.6426 17.7306C57.3372 15.7534 57.9806 13.282 57.9252 11.0321C57.3926 10.3929 56.86 9.86026 56.2634 9.25944C57.2307 12.6811 55.5134 19.0132 53.8473 20.3469C52.5093 22.6522 50.1529 21.1523 49.5095 19.1197C49.0876 17.4025 48.5976 12.2593 49.143 10.6656C49.6203 9.1103 51.8148 7.13313 53.6982 7.02234C53.2209 6.65588 52.6755 6.27238 52.1983 5.94427C50.9711 6.36613 49.8376 7.22688 49.0876 8.08763Z" fill="#3D3D3D"/>
<mask id="mask2_2307_26186" style="mask-type:luminance" maskUnits="userSpaceOnUse" x="35" y="0" width="31" height="39">
<path d="M35.0996 0H65.6434V38.0988H35.0996V0Z" fill="white"/>
</mask>
<g mask="url(#mask2_2307_26186)">
<path d="M35.487 10.2267C35.1206 13.5418 35.0652 17.0871 35.4359 20.4023C36.0197 25.3835 37.7412 31.3832 42.079 34.2765C44.0008 35.5549 46.3061 37.2764 48.5559 37.6982C53.9719 38.8189 58.6761 35.8276 61.3095 31.2724C62.4259 29.406 63.4486 27.4672 64.5821 25.6009C64.7994 25.162 65.0039 24.7955 65.2766 24.3736C65.1147 23.7856 64.8974 23.1464 64.6929 22.5456C64.3648 23.0229 64.0494 23.5129 63.7256 23.9901C62.7541 25.4347 61.9487 27.1008 61.1604 28.6561C56.4007 37.4383 51.2021 38.6655 42.8972 33.2112C35.2314 28.1234 37.004 17.6197 37.1105 9.80482C37.1105 6.74958 38.6658 3.27249 40.9157 0.911823C40.4385 0.7499 39.8931 0.639109 39.3647 0.52832C38.5039 1.60639 37.8094 2.72707 37.2767 3.63895C36.254 5.19427 35.7768 8.36029 35.5041 10.2267H35.487Z" fill="#3D3D3D"/>
</g>
<path d="M38.2694 16.8699C38.7466 20.2958 39.0747 25.601 40.89 28.5454C42.2833 30.8507 44.6398 32.1333 47.1112 33.1006C54.5043 35.9939 58.514 30.8507 61.5693 25.0129L64.0365 20.7859C63.8191 20.1978 63.5592 19.6652 63.2865 19.0644C62.6985 20.0359 62.0593 20.9904 61.5266 22.0685C60.6148 23.7857 59.754 25.4902 58.6887 27.1009C54.7216 33.156 50.0173 34.3832 43.958 29.828C39.569 26.5128 39.4028 15.958 39.6201 10.9213C39.7863 7.11614 41.1201 4.00977 44.0134 1.75563C43.4807 1.5937 42.9353 1.43178 42.4581 1.27838C41.9808 1.7045 41.5462 2.13913 41.1754 2.56098C37.481 7.00961 38.1202 11.454 38.2864 16.8699H38.2694Z" fill="#3D3D3D"/>
<path d="M16.5835 55.1689C16.8008 52.7571 17.1715 49.6592 13.801 49.9191C12.2457 51.4745 12.1349 55.4288 12.9402 57.3122C13.2129 57.7895 13.5837 58.3903 14.2228 58.3903C15.5054 58.3903 16.4173 56.1958 16.5835 55.1689ZM14.9174 56.835L14.8663 57.2568L14.5935 56.8776C13.7328 55.6504 13.5666 52.5397 14.5381 51.3637L14.7001 51.1464L14.8109 51.4191C15.45 53.0298 15.0836 55.1177 14.9174 56.835Z" fill="#3D3D3D"/>
<mask id="mask3_2307_26186" style="mask-type:luminance" maskUnits="userSpaceOnUse" x="24" y="0" width="32" height="60">
<path d="M24.1895 0H55.8241V59.9158H24.1895V0Z" fill="white"/>
</mask>
<g mask="url(#mask3_2307_26186)">
<path d="M48.3928 46.0714C44.5323 45.9095 40.4117 46.2376 37.3565 43.3443C35.912 41.9552 35.6904 40.8771 34.8893 39.1172C34.1393 37.5619 33.3894 36.812 32.1068 35.6913C31.246 35.1629 29.4308 33.6076 28.83 32.8022C26.9636 30.1816 26.5801 26.1591 26.5247 23.0485C26.4736 21.1821 26.5247 19.2987 26.5801 17.4281C26.6355 15.9835 26.6355 14.3728 26.4736 12.9283C26.3074 11.5392 25.7236 8.11321 26.1582 6.76243C26.3756 6.12326 26.9082 5.42443 27.2363 4.78526C28.0417 3.34073 28.6808 1.78542 29.2689 0.230103C28.847 0.285498 28.3527 0.392026 27.9309 0.447421C27.7689 0.924668 27.509 1.47009 27.1809 2.11353C26.269 3.9799 24.9864 5.00258 24.6583 7.25246C24.3302 9.4512 24.9736 11.5392 25.1356 13.6783C25.4509 20.2106 23.7422 28.4644 28.08 34.0294C29.3072 35.6402 30.6069 36.1174 32.0514 37.4C35.3666 40.2891 33.2232 43.2378 38.801 46.0714C40.9444 47.1921 43.3051 47.354 45.6615 47.354C48.0221 47.354 50.0547 47.2475 51.9253 47.9421H51.9765L52.0319 47.9975C53.3145 50.2473 52.5645 54.1633 53.1653 56.7243C53.3826 57.585 53.5872 58.4458 53.7534 59.2895C54.1752 58.9614 54.5545 58.6503 54.9252 58.3222C54.5033 56.7115 54.1752 55.267 54.0644 53.6008C53.6426 47.8185 55.1979 46.3186 48.3928 46.0459V46.0714Z" fill="#3D3D3D"/>
</g>
<mask id="mask4_2307_26186" style="mask-type:luminance" maskUnits="userSpaceOnUse" x="28" y="0" width="31" height="58">
<path d="M28.5547 0H58.0077V57.7341H28.5547V0Z" fill="white"/>
</mask>
<g mask="url(#mask4_2307_26186)">
<path d="M56.916 47.7801C56.7541 46.4421 56.5496 44.5033 55.5269 43.5488C54.6107 42.6369 53.1108 42.6369 51.8836 42.7435C48.8838 43.0162 44.9124 43.2207 42.0233 42.3216C40.2507 41.7378 38.9681 40.8217 38.1074 39.1598C36.9355 37.0165 36.8247 34.7112 35.1629 32.6787C33.3349 30.5396 32.2142 30.318 31.2469 27.2074C30.497 24.6848 30.497 21.6977 30.5524 19.0643C30.6077 15.958 30.0197 12.8473 30.1816 9.74948C30.2924 7.33768 31.8477 3.05523 33.7695 0H32.1077C31.9415 0.366457 31.7242 0.694566 31.575 1.07381C30.237 3.7498 29.1036 6.43432 28.899 9.48955C28.7925 10.9383 28.899 12.4383 28.9544 13.8828C29.0652 15.86 29.1206 17.8925 29.1206 19.8867C29.1206 23.6365 29.1717 27.8082 31.5878 30.8634C32.1758 31.6134 32.8704 32.3122 33.4585 33.0622C34.2595 34.0294 35.0095 35.0393 35.5975 36.1728H35.6529C40.1527 51.5981 54.0781 39.4837 55.3053 46.3995L56.6433 56.7413C57.0651 56.3152 57.4487 55.9359 57.8151 55.5141L57.764 55.2925C57.3379 52.7699 57.1759 50.3155 56.9032 47.7929L56.916 47.7801Z" fill="#3D3D3D"/>
</g>
<mask id="mask5_2307_26186" style="mask-type:luminance" maskUnits="userSpaceOnUse" x="36" y="52" width="13" height="15">
<path d="M36.1895 52.2797H48.1888V66.269H36.1895V52.2797Z" fill="white"/>
</mask>
<g mask="url(#mask5_2307_26186)">
<path d="M44.4914 52.3351C44.0142 52.3351 43.5242 52.497 43.1023 52.6632C42.5143 52.9359 41.9816 53.3578 41.4916 53.737C40.3709 54.6531 40.797 57.2183 39.3482 59.6301C38.5983 60.7508 38.0656 61.6627 37.7418 63.0007C37.5202 64.0234 37.2645 65.0887 37.043 66.1625C37.5202 66.1113 38.0145 66.0559 38.4918 66.0005C38.8199 64.1342 39.2971 62.4127 39.8255 61.39C41.0016 59.4128 41.2743 59.6174 41.8069 57.2183C42.2288 55.3349 42.3353 54.0523 44.4787 53.7924H44.5894L44.6406 53.8478C46.9459 55.7696 46.7839 60.3247 46.3621 63.7081C46.8393 63.4907 47.3294 63.2862 47.8066 63.0689C47.9685 61.4582 48.1219 59.9029 47.9685 58.6757C47.7512 56.8093 47.112 52.3606 44.4914 52.3606V52.3351Z" fill="#3D3D3D"/>
</g>
<path d="M19.0944 49.8637C17.7564 47.6692 14.7012 46.1693 12.1786 47.3411C11.6459 47.6138 11.1559 47.9291 10.7852 48.3637C9.17873 50.0852 8.80801 52.8124 8.96141 55.0622C8.96141 55.335 9.01254 55.5949 9.01254 55.923C9.65597 56.5622 10.2951 57.2013 10.9386 57.7894C10.2951 55.9613 9.96704 53.8734 10.3505 52.4289C10.9386 50.1236 12.545 47.6564 15.2764 48.5129C17.3601 49.2117 18.3316 50.6008 18.2209 52.7996C18.1101 54.666 17.2536 59.66 15.0548 60.9938C15.4256 61.2153 15.8048 61.4199 16.1755 61.6926C17.6754 60.5719 18.5873 58.5266 19.0646 56.8775C19.5461 55.156 20.0915 51.4616 19.0646 49.8637H19.0944Z" fill="#3D3D3D"/>
<mask id="mask6_2307_26186" style="mask-type:luminance" maskUnits="userSpaceOnUse" x="63" y="32" width="4" height="12">
<path d="M63.4609 32.6445H66.269V43.553H63.4609V32.6445Z" fill="white"/>
</mask>
<g mask="url(#mask6_2307_26186)">
<path d="M64.3641 38.4608C64.3087 40.2335 64.4748 41.8314 64.7859 43.4932C65.2078 42.266 65.5359 40.9706 65.8086 39.688L65.7532 39.2108C65.7021 37.4382 65.9194 36.4837 66.3412 35.6229C66.3966 34.8218 66.452 34.0165 66.452 33.2111V33.0449C65.2759 34.6002 64.3641 35.9936 64.3641 38.4608Z" fill="#3D3D3D"/>
</g>
<mask id="mask7_2307_26186" style="mask-type:luminance" maskUnits="userSpaceOnUse" x="59" y="27" width="8" height="21">
<path d="M59.0977 27.1903H66.2691V47.9165H59.0977V27.1903Z" fill="white"/>
</mask>
<g mask="url(#mask7_2307_26186)">
<path d="M61.5257 38.133C61.3084 37.1103 62.5484 35.3505 63.0256 34.5494C64.1037 32.8279 65.2243 31.2342 66.247 29.5681C66.1916 28.8181 66.0808 28.0128 65.9189 27.2628C65.2243 28.6008 63.669 31.6007 62.331 33.3222C57.8824 38.8318 61.1976 38.1884 62.3864 42.7989C62.7657 44.2988 62.9702 45.9649 63.081 47.7248C63.5028 46.9194 63.831 46.1141 64.1463 45.3087C63.831 42.8415 63.3409 40.809 62.6975 40.0036C62.331 39.5264 61.6365 38.7764 61.5257 38.133Z" fill="#3D3D3D"/>
</g>
<mask id="mask8_2307_26186" style="mask-type:luminance" maskUnits="userSpaceOnUse" x="30" y="0" width="32" height="54">
<path d="M30.7363 0H61.2802V53.3707H30.7363V0Z" fill="white"/>
</mask>
<g mask="url(#mask8_2307_26186)">
<path d="M57.9806 40.1654C56.208 39.0916 48.6658 39.2535 46.3051 39.1428C41.0511 38.9254 36.496 31.5324 34.7361 27.1945C32.9635 23.1294 34.5188 19.7503 33.9861 15.6298C33.4578 11.3474 32.3797 8.93129 34.3569 4.70424C35.1068 3.03813 36.0741 1.53821 37.3567 0.255612C36.7687 0.149084 36.2232 0.093689 35.6395 0.093689C34.7787 1.21011 33.918 2.50549 33.4961 3.31085C30.019 9.68125 32.9635 13.12 32.5842 19.4904C32.418 22.4902 32.107 24.4674 33.2788 27.3607C34.3569 30.0878 36.6494 34.055 38.6393 36.2537C41.5326 39.4155 44.8052 40.6427 49.0322 40.6981C50.5321 40.7535 52.0875 40.6427 53.6428 40.6427C55.1981 40.6427 56.11 40.6981 57.0645 41.3415C58.6198 42.3088 59.3697 48.4065 59.7405 53.1235C60.2177 52.5398 60.597 51.9517 61.0231 51.3509C60.4904 45.8839 59.5743 41.1753 57.9678 40.1526L57.9806 40.1654Z" fill="#3D3D3D"/>
</g>
<mask id="mask9_2307_26186" style="mask-type:luminance" maskUnits="userSpaceOnUse" x="32" y="46" width="20" height="21">
<path d="M32.918 46.8256H51.4624V66.2692H32.918V46.8256Z" fill="white"/>
</mask>
<g mask="url(#mask9_2307_26186)">
<path d="M45.2959 49.5528C44.0687 49.3866 42.9906 49.0202 41.8742 48.4747C41.12 48.104 40.2081 47.6694 39.3474 47.5586C38.819 47.4521 38.3247 47.5586 37.8474 47.7802C37.4256 47.9421 36.9356 48.1594 36.8248 48.6367C36.4583 49.9193 38.9127 52.2245 37.6855 55.6079C36.8802 57.8578 35.4868 59.673 34.7922 62.0337C34.3704 63.4228 34.0422 64.8162 33.7695 66.2607V66.3715C34.1914 66.3715 34.6857 66.3715 35.1629 66.3161C35.4356 65.0335 35.7467 63.6955 36.1302 62.4001C36.8248 59.9841 38.1628 58.2285 39.0235 55.9232C39.6627 54.2571 39.7735 53.1407 39.0746 51.53C38.6954 50.6692 38.3801 50.0301 38.3247 49.1139V48.8966H38.542C39.5135 49.0074 40.8473 49.2247 41.5461 49.9747C41.968 50.1366 42.458 50.2474 42.9352 50.3965C42.9352 50.4519 42.9906 50.4519 43.046 50.4519C43.208 50.4519 43.4679 50.6138 43.5233 50.6692C44.4352 51.0911 43.9451 51.2019 45.0232 50.9973C45.8839 50.8354 46.8384 50.8865 47.5884 51.4192C49.621 52.9191 49.5656 57.7896 49.7829 60.0949C49.8383 60.6275 49.8937 61.2155 50.0002 61.8675C50.4774 61.5948 50.9163 61.2837 51.3936 61.011C51.1209 58.5949 50.8056 56.3451 50.6436 55.1179C49.9491 50.9419 49.5656 50.1366 45.2831 49.5528H45.2959Z" fill="#3D3D3D"/>
</g>
<path d="M27.4532 48.4746C25.5314 44.354 22.4762 40.4381 18.1384 38.7208C14.8658 37.3828 11.2779 37.6044 8.12468 39.1043C5.60209 40.3315 3.51413 42.3215 2.125 44.7759C2.34232 45.3639 2.60225 45.952 2.87496 46.5485C3.14767 45.854 3.51413 45.1594 3.95303 44.5202C5.98559 41.4096 9.84618 39.3216 13.4852 39.2662C14.0732 39.2662 14.6059 39.2662 15.1513 39.377C18.2619 39.8543 21.0444 41.8442 23.077 44.1495C25.4888 46.932 27.7387 51.4318 27.0441 55.1859V55.237L22.7617 64.718C23.1835 64.8288 23.6224 64.9907 24.0443 65.0887L24.317 64.5561C24.9008 63.3289 25.4505 62.0846 26.0896 60.8063C28.3395 56.5196 29.784 53.247 27.4788 48.4874L27.4532 48.4746Z" fill="#3D3D3D"/>
<path d="M21.7783 44.1369C19.5839 41.9935 16.5286 40.9155 13.4734 41.0816C10.3628 41.2436 7.58024 42.6924 5.70107 45.1596C4.89572 46.276 4.30768 47.4648 3.87305 48.7474C4.23951 49.3866 4.62301 50.0854 5.04486 50.7246C5.6329 47.9421 6.96663 45.2533 9.43809 43.6596C11.5218 42.3216 14.1552 42.0489 16.5158 42.7989C18.6549 43.4423 20.5256 44.6695 21.8764 46.4975C24.8208 50.5073 23.9643 55.7016 21.7102 59.8349C21.2329 60.7511 20.7983 61.7055 20.321 62.6728C20.1591 62.9455 20.0057 63.2609 19.7884 63.5336C20.2102 63.7509 20.6491 63.9 21.071 64.0662C21.2329 63.7935 21.3991 63.5336 21.5482 63.2609C22.9416 60.7894 24.9742 56.7797 25.1361 53.9971C25.4088 50.3581 24.4416 46.7703 21.7656 44.1369H21.7783Z" fill="#3D3D3D"/>
<mask id="mask10_2307_26186" style="mask-type:luminance" maskUnits="userSpaceOnUse" x="40" y="58" width="7" height="9">
<path d="M40.5527 58.8249H46.007V66.2691H40.5527V58.8249Z" fill="white"/>
</mask>
<g mask="url(#mask10_2307_26186)">
<path d="M44.601 59.3448C41.8739 57.5168 40.6296 62.562 40.5742 65.5661C41.7077 65.2934 42.8284 64.9781 43.9022 64.65L44.1749 64.1727C44.8183 62.9455 46.1563 60.3675 44.601 59.3576V59.3448ZM43.9022 60.6828C43.7956 61.91 43.263 63.0392 42.675 64.1045L42.4576 64.5264L42.3511 64.1045C41.9804 62.66 42.4576 61.3774 43.6295 60.5167L43.9448 60.2439L43.8894 60.6658L43.9022 60.6828Z" fill="#3D3D3D"/>
</g>
<path d="M14.3341 44.1368C11.2235 44.0814 8.75625 45.854 7.37565 48.5811C6.73647 49.7572 6.35297 51.0526 6.14844 52.3863C6.62568 53.0298 7.17111 53.7243 7.70375 54.3124C7.75915 51.6364 8.50911 48.4746 10.5971 46.7531C10.8144 46.5358 11.0743 46.3866 11.347 46.2247C13.4861 45.0486 16.2686 45.5259 18.2075 46.8639C20.7301 48.5811 21.5738 51.3636 20.9346 54.257C20.6619 55.3904 19.652 58.2283 18.9574 59.1274C18.5867 60.2993 18.2075 61.3773 17.5129 62.4C17.8921 62.6173 18.2629 62.8218 18.6847 62.988C20.3465 60.0393 21.6845 57.6275 22.3791 54.0396C23.4018 48.8965 19.5455 44.2305 14.3469 44.1368H14.3341Z" fill="#3D3D3D"/>
<mask id="mask11_2307_26186" style="mask-type:luminance" maskUnits="userSpaceOnUse" x="20" y="1" width="17" height="66">
<path d="M20.918 1.00989H36.1899V66.2692H20.918V1.00989Z" fill="white"/>
</mask>
<g mask="url(#mask11_2307_26186)">
<path d="M35.5965 53.5624C35.8692 51.7344 35.3238 50.0853 34.4631 48.4746C33.5512 46.7531 32.5967 44.9975 32.4859 43.0587C32.4305 42.2533 32.2132 41.6696 31.9021 40.9707C29.5414 35.7764 23.921 37.6556 22.8429 29.2952C21.9822 22.8183 23.431 16.009 22.8983 9.42128C22.681 6.89869 22.2592 4.33348 22.4765 1.75549C22.0504 1.92168 21.6157 2.0836 21.1939 2.23274C21.1385 4.59341 21.3558 7.15862 21.5049 9.24657C21.8884 15.8343 20.6484 22.6393 21.3984 29.1205C21.7265 32.1204 22.681 34.6856 25.0417 36.6755C26.4862 37.9027 28.6253 38.7635 29.8142 40.1526C29.9761 40.3699 30.1252 40.5361 30.236 40.7406C30.8794 41.7633 31.1522 43.1524 31.4078 44.3285C31.7913 45.8284 32.1578 47.2176 32.9631 48.5556C34.9403 51.9773 34.8892 53.2215 33.0185 56.754C32.324 58.0366 31.8467 59.4257 31.4632 60.8191C30.986 62.3744 30.6067 64.3516 30.0741 66.1796C30.4959 66.2308 30.986 66.2862 31.4632 66.2862C31.6294 65.4297 31.8467 64.5135 32.0513 63.6698C32.5285 61.6373 33.2231 59.7538 34.0838 57.8321C34.6676 56.4941 35.3664 55.0495 35.5837 53.5496L35.5965 53.5624Z" fill="#3D3D3D"/>
</g>
<mask id="mask12_2307_26186" style="mask-type:luminance" maskUnits="userSpaceOnUse" x="16" y="3" width="17" height="64">
<path d="M16.5547 3.19147H32.9175V66.2691H16.5547V3.19147Z" fill="white"/>
</mask>
<g mask="url(#mask12_2307_26186)">
<path d="M27.344 42.4195C26.0102 40.536 24.4549 38.887 22.4778 37.6427C21.617 37.1101 20.1171 36.4709 19.4779 35.721C18.2465 34.4938 18.5618 31.8604 18.7237 30.3051C19.4225 23.5554 18.9453 16.9123 19.0518 10.1584C19.1072 8.07044 18.9964 5.98675 18.9453 3.89879V3.20422C18.5192 3.42154 18.0845 3.62608 17.6073 3.89879V4.06071C17.6627 6.09327 17.7692 8.12584 17.7692 10.1712C17.6627 16.7078 18.0419 23.2955 17.4027 29.7724C17.2408 31.6984 16.8147 35.3929 18.4808 36.8928C19.1754 37.5362 20.4026 38.0135 21.3187 38.5035C22.9806 39.4708 24.2632 40.6426 25.435 42.0914C28.1664 45.6238 32.0227 52.2116 29.939 56.7113C29.4064 57.8831 28.601 58.7993 28.0556 59.9327C27.4676 61.2153 27.2502 62.6599 26.7176 64.0106C26.5557 64.5433 26.2957 65.0887 26.0784 65.6171C26.5003 65.6725 26.9903 65.7833 27.4676 65.8898C27.5229 65.7279 27.5783 65.6171 27.6337 65.468C28.2175 64.1854 28.4902 62.9028 28.9163 61.5562C29.0229 61.2281 29.1891 60.9128 29.3382 60.5847C29.8708 59.4683 30.6762 58.501 31.2046 57.3675C33.3479 53.0851 29.9774 45.9093 27.344 42.4195Z" fill="#3D3D3D"/>
</g>
<path d="M80.1669 40.8736L80.1328 40.4646C80.9041 40.4646 81.4495 40.1109 81.7691 39.4078C82.0972 38.7132 82.2634 37.665 82.2634 36.2546V19.5339C82.2634 18.8776 82.1015 18.46 81.7861 18.2896C81.4793 18.1106 80.985 18.0169 80.3033 18.0169V17.6419H87.3597V18.0169C86.6779 18.0169 86.1751 18.1106 85.8598 18.2896C85.5402 18.46 85.3825 18.8776 85.3825 19.5339V35.7943C85.3825 36.9662 85.2547 37.8908 85.0076 38.5726C84.7561 39.2544 84.3982 39.7572 83.9337 40.0896C83.4778 40.4177 82.9281 40.6265 82.2804 40.7202C81.6413 40.8225 80.9382 40.8736 80.1669 40.8736Z" fill="#3D3D3D"/>
<path d="M91.8742 36.425V19.5339C91.8742 18.8776 91.7123 18.46 91.3969 18.2896C91.0901 18.1106 90.5958 18.0169 89.9141 18.0169V17.6419H96.9705V18.0169C96.2887 18.0169 95.7859 18.1106 95.4706 18.2896C95.151 18.46 94.9933 18.8776 94.9933 19.5339V36.425C94.9933 37.0855 95.151 37.5073 95.4706 37.6863C95.7859 37.8567 96.2802 37.942 96.9535 37.942L96.9705 38.3169H89.9141V37.942C90.5958 37.942 91.0901 37.8567 91.3969 37.6863C91.7123 37.5073 91.8742 37.0855 91.8742 36.425Z" fill="#3D3D3D"/>
<path d="M98.9668 38.3171V37.9421C99.623 37.9421 100.113 37.8526 100.433 37.6694C100.748 37.4776 100.91 37.0643 100.91 36.4251V19.534C100.91 18.8777 100.748 18.4602 100.433 18.2897C100.113 18.1107 99.623 18.017 98.9668 18.017V17.642H107.012C108.069 17.642 109.1 17.6932 110.114 17.7954C111.124 17.8977 112.04 18.1193 112.858 18.4602C113.685 18.801 114.345 19.3081 114.835 19.9771C115.334 20.6504 115.585 21.5537 115.585 22.6872C115.585 23.8036 115.355 24.6985 114.903 25.3802C114.448 26.062 113.847 26.5861 113.097 26.9483C112.347 27.302 111.533 27.5406 110.659 27.6642C109.794 27.792 108.946 27.8517 108.12 27.8517H106.927C107.302 28.444 107.719 28.8744 108.188 29.1471C108.652 29.4198 109.113 29.5562 109.569 29.5562C110.088 29.5562 110.578 29.3772 111.034 29.0107L116.148 36.4251C116.578 37.0302 117.025 37.4307 117.494 37.6353C117.971 37.8398 118.474 37.9421 119.011 37.9421V38.3171H116.199C115.423 38.3171 114.75 38.1551 114.171 37.8228C113.6 37.4947 113.097 37.0813 112.654 36.5785C112.219 36.08 111.823 35.5729 111.46 35.0615L106.5 27.8517H104.029V36.4251C104.029 37.0643 104.182 37.4776 104.489 37.6694C104.805 37.8526 105.307 37.9421 105.989 37.9421V38.3171H98.9668ZM104.029 27.4767H107.046C108.043 27.4767 108.955 27.3489 109.773 27.0847C110.6 26.8248 111.26 26.3475 111.75 25.653C112.236 24.9627 112.483 23.9826 112.483 22.7213C112.483 21.1873 112.057 20.024 111.205 19.2272C110.361 18.4218 109.151 18.017 107.574 18.017H104.029V27.4767ZM106.927 15.8012L103.807 10.9776H103.978L107.574 14.5229L111.188 10.9776H111.375L108.239 15.8012H106.927Z" fill="#3D3D3D"/>
<path d="M127.91 38.317H120.854V37.942C121.523 37.942 122.013 37.8568 122.319 37.6863C122.635 37.5074 122.797 37.0855 122.797 36.4251V19.5339C122.797 18.8777 122.635 18.4601 122.319 18.2896C122.013 18.1107 121.523 18.0169 120.854 18.0169V17.642H127.91V18.0169C127.228 18.0169 126.721 18.1107 126.393 18.2896C126.073 18.4601 125.916 18.8777 125.916 19.5339V36.4251C125.916 37.0855 126.073 37.5074 126.393 37.6863C126.721 37.8568 127.215 37.942 127.876 37.942L127.91 38.317ZM123.512 15.0682H123.035L124.791 9.92078H126.836L123.512 15.0682Z" fill="#3D3D3D"/>
<path d="M138.395 38.3169V29.8116H138.77C138.77 31.6993 139.042 33.2461 139.588 34.4478C140.133 35.6537 140.875 36.54 141.82 37.1067C142.775 37.6649 143.823 37.9419 144.974 37.9419C145.69 37.9419 146.342 37.8354 146.934 37.618C147.535 37.405 148.016 37.047 148.383 36.5442C148.745 36.0457 148.928 35.3809 148.928 34.55C148.928 33.7574 148.672 33.0288 148.161 32.3683C147.658 31.6993 147.006 31.0644 146.201 30.4593C145.404 29.8585 144.556 29.2619 143.661 28.6696C142.775 28.0688 141.927 27.451 141.122 26.8118C140.325 26.1641 139.677 25.4653 139.179 24.7153C138.676 23.9568 138.429 23.1216 138.429 22.2098C138.429 21.1104 138.723 20.1985 139.315 19.4826C139.916 18.7668 140.666 18.2341 141.565 17.8804C142.472 17.5183 143.393 17.335 144.326 17.335C145.042 17.335 145.647 17.4117 146.15 17.5566C146.648 17.693 147.079 17.8634 147.445 18.0679C147.807 18.264 148.131 18.4344 148.417 18.5793C148.711 18.7156 149.001 18.7838 149.286 18.7838C149.661 18.7838 149.917 18.6986 150.053 18.5281C150.189 18.3577 150.258 18.0637 150.258 17.6418H150.615V24.3403H150.258C150.258 23.0705 150.01 21.9541 149.525 20.9996C149.047 20.0451 148.387 19.3079 147.547 18.7838C146.717 18.2512 145.775 17.9827 144.718 17.9827C143.58 17.9827 142.766 18.2554 142.281 18.8009C141.791 19.3378 141.548 20.0195 141.548 20.8462C141.548 21.7794 141.791 22.5975 142.281 23.3006C142.766 24.008 143.397 24.6471 144.173 25.2266C144.957 25.8062 145.779 26.3686 146.644 26.9141C147.518 27.4595 148.34 28.039 149.116 28.6526C149.887 29.2662 150.517 29.9565 151.007 30.715C151.506 31.4777 151.757 32.3641 151.757 33.3739C151.757 34.3412 151.561 35.2233 151.178 36.0158C150.79 36.8127 150.142 37.4561 149.235 37.9419C148.323 38.4191 147.07 38.6578 145.468 38.6578C144.684 38.6578 144.023 38.5896 143.491 38.4532C142.967 38.3254 142.511 38.1762 142.127 37.993C141.74 37.814 141.382 37.6606 141.053 37.5328C140.734 37.3965 140.406 37.3283 140.065 37.3283C139.2 37.3283 138.77 37.6606 138.77 38.3169H138.395ZM141.241 10.8581H141.411L145.008 14.4034L148.604 10.8581H148.809L145.656 15.6817H144.36L141.241 10.8581Z" fill="#3D3D3D"/>
<path d="M154.023 38.3169V37.942C154.68 37.942 155.17 37.8525 155.489 37.6693C155.817 37.4775 155.984 37.0642 155.984 36.425V19.5339C155.984 18.8776 155.817 18.46 155.489 18.2896C155.17 18.1106 154.68 18.0169 154.023 18.0169V17.6419H162.068C163.134 17.6419 164.173 17.693 165.188 17.7953C166.198 17.8976 167.114 18.1192 167.932 18.46C168.75 18.8009 169.402 19.308 169.892 19.977C170.39 20.6503 170.642 21.5536 170.642 22.6871C170.642 23.8035 170.412 24.6984 169.96 25.3801C169.504 26.0619 168.903 26.586 168.153 26.9482C167.412 27.3019 166.607 27.5405 165.733 27.6641C164.868 27.7919 164.016 27.8516 163.176 27.8516H162C162.375 28.4439 162.789 28.8743 163.245 29.147C163.709 29.4197 164.169 29.556 164.625 29.556C165.158 29.556 165.652 29.3771 166.108 29.0106L171.204 36.425C171.648 37.0301 172.099 37.4306 172.568 37.6352C173.045 37.8397 173.544 37.942 174.068 37.942V38.3169H171.273C170.488 38.3169 169.807 38.155 169.227 37.8227C168.656 37.4945 168.153 37.0812 167.71 36.5784C167.276 36.0798 166.884 35.5728 166.534 35.0614L161.574 27.8516H159.103V36.425C159.103 37.0642 159.256 37.4775 159.563 37.6693C159.878 37.8525 160.381 37.942 161.063 37.942V38.3169H154.023ZM159.103 27.4766H162.103C163.1 27.4766 164.012 27.3488 164.83 27.0846C165.656 26.8247 166.317 26.3474 166.807 25.6528C167.305 24.9625 167.557 23.9825 167.557 22.7212C167.557 21.1872 167.131 20.0239 166.278 19.227C165.426 18.4217 164.216 18.0169 162.648 18.0169H159.103V27.4766Z" fill="#3D3D3D"/>
<path d="M175.492 18.0169V17.6419H182.634V18.0169C181.952 18.0169 181.445 18.1106 181.117 18.2896C180.785 18.46 180.623 18.933 180.623 19.7043V30.9367C180.623 33.3016 181.104 35.0742 182.071 36.2546C183.047 37.4264 184.389 38.0101 186.094 38.0101C187.296 38.0101 188.361 37.8141 189.281 37.4136C190.202 37.0173 190.922 36.3227 191.446 35.3341C191.979 34.337 192.247 32.9394 192.247 31.1412V19.4316C192.213 18.8095 192.025 18.4174 191.685 18.2555C191.352 18.0978 190.871 18.0169 190.236 18.0169V17.6419H194.633V18.0169C194.096 18.0169 193.628 18.1106 193.219 18.2896C192.818 18.46 192.622 18.933 192.622 19.7043V31.1412C192.622 31.6866 192.579 32.296 192.503 32.965C192.422 33.6254 192.251 34.2902 191.991 34.9592C191.727 35.6324 191.335 36.246 190.815 36.8C190.291 37.3582 189.588 37.8056 188.702 38.1465C187.824 38.4874 186.729 38.6578 185.412 38.6578C183.409 38.6578 181.833 38.3212 180.674 37.6522C179.523 36.9832 178.705 36.0671 178.219 34.908C177.742 33.7405 177.503 32.4153 177.503 30.9367V19.7043C177.503 18.933 177.333 18.46 176.992 18.2896C176.66 18.1106 176.161 18.0169 175.492 18.0169Z" fill="#3D3D3D"/>
<path d="M196.184 18.0169V17.6419H204.263C205.319 17.6419 206.351 17.693 207.365 17.7953C208.375 17.8976 209.282 18.1192 210.092 18.46C210.91 18.8009 211.562 19.3208 212.052 20.0111C212.551 20.7057 212.802 21.6261 212.802 22.7723C212.802 24.2296 212.38 25.3972 211.541 26.2835C210.697 27.1613 209.606 27.6087 208.268 27.63V27.7323C210.062 27.7323 211.477 28.1499 212.512 28.9765C213.556 29.7947 214.08 30.9153 214.08 32.3343C214.08 32.9607 213.978 33.6212 213.774 34.3115C213.578 34.9933 213.194 35.641 212.615 36.2546C212.035 36.8682 211.2 37.371 210.109 37.7545C209.027 38.1295 207.603 38.3169 205.831 38.3169H196.184V37.942C196.865 37.942 197.36 37.8567 197.666 37.6863C197.982 37.5159 198.144 37.1153 198.144 36.4761V19.4316C198.118 18.8308 197.948 18.443 197.632 18.2726C197.326 18.1021 196.84 18.0169 196.184 18.0169ZM204.808 27.8516H201.28V36.4761C201.28 36.9108 201.352 37.2346 201.501 37.4477C201.659 37.665 201.953 37.8056 202.388 37.8738C202.831 37.942 203.47 37.9761 204.314 37.9761C206.461 37.9761 208.055 37.5244 209.103 36.6125C210.147 35.6921 210.671 34.2518 210.671 32.2832C210.671 31.0901 210.407 30.1782 209.887 29.539C209.376 28.8913 208.669 28.4482 207.774 28.2095C206.888 27.9709 205.899 27.8516 204.808 27.8516ZM201.28 19.4316V27.5107H204.297C205.294 27.5107 206.197 27.3914 207.007 27.1528C207.825 26.9056 208.473 26.4369 208.95 25.7551C209.436 25.0733 209.683 24.0805 209.683 22.7723C209.683 21.2298 209.282 20.0537 208.49 19.2441C207.693 18.426 206.47 18.0169 204.825 18.0169C203.871 18.0169 203.138 18.0467 202.626 18.1021C202.115 18.1618 201.761 18.2896 201.57 18.4941C201.374 18.6901 201.28 19.0012 201.28 19.4316Z" fill="#3D3D3D"/>
<path d="M220.064 38.3169H215.633V37.942C216.11 37.942 216.587 37.7715 217.065 37.4306C217.542 37.0897 217.887 36.6721 218.104 36.1693L224.274 21.3576L223.49 19.4316C223.26 18.8649 222.911 18.4899 222.434 18.3066C221.965 18.1149 221.449 18.0169 220.883 18.0169V17.6419H225.842L233.308 35.4535C233.704 36.3739 234.143 37.0216 234.62 37.3965C235.098 37.763 235.686 37.942 236.393 37.942V38.3169H228.416V37.942H229.183C229.92 37.942 230.342 37.7033 230.445 37.2261C230.555 36.7488 230.47 36.1693 230.189 35.4876L228.57 31.5332H220.405L218.53 36.05C218.279 36.6551 218.326 37.1196 218.667 37.4477C219.008 37.78 219.472 37.942 220.064 37.942V38.3169ZM224.479 21.7837L220.559 31.1753H228.399L224.479 21.7837Z" fill="#3D3D3D"/>
<path d="M237.955 38.3171V37.9421C238.611 37.9421 239.101 37.8526 239.421 37.6694C239.736 37.4776 239.898 37.0643 239.898 36.4251V19.534C239.898 18.8777 239.736 18.4602 239.421 18.2897C239.101 18.1107 238.611 18.017 237.955 18.017V17.642H246C247.057 17.642 248.088 17.6932 249.102 17.7954C250.112 17.8977 251.028 18.1193 251.846 18.4602C252.673 18.801 253.334 19.3081 253.824 19.9771C254.322 20.6504 254.574 21.5537 254.574 22.6872C254.574 23.8036 254.343 24.6985 253.892 25.3802C253.436 26.062 252.835 26.5861 252.085 26.9483C251.335 27.302 250.521 27.5406 249.648 27.6642C248.783 27.792 247.935 27.8517 247.108 27.8517H245.915C246.29 28.444 246.707 28.8744 247.176 29.1471C247.641 29.4198 248.101 29.5562 248.557 29.5562C249.077 29.5562 249.567 29.3772 250.023 29.0107L255.136 36.4251C255.566 37.0302 256.014 37.4307 256.483 37.6353C256.96 37.8398 257.463 37.9421 257.999 37.9421V38.3171H255.187C254.412 38.3171 253.738 38.1551 253.159 37.8228C252.588 37.4947 252.085 37.0813 251.642 36.5785C251.207 36.08 250.811 35.5729 250.449 35.0615L245.489 27.8517H243.017V36.4251C243.017 37.0643 243.171 37.4776 243.478 37.6694C243.793 37.8526 244.296 37.9421 244.977 37.9421V38.3171H237.955ZM243.017 27.4767H246.034C247.031 27.4767 247.943 27.3489 248.761 27.0847C249.588 26.8248 250.248 26.3475 250.738 25.653C251.224 24.9627 251.471 23.9826 251.471 22.7213C251.471 21.1873 251.045 20.024 250.193 19.2272C249.349 18.4218 248.139 18.017 246.563 18.017H243.017V27.4767ZM245.915 15.8012L242.796 10.9776H242.966L246.563 14.5229L250.176 10.9776H250.364L247.227 15.8012H245.915Z" fill="#3D3D3D"/>
<path d="M80.748 54.4166V53.2065H84.6853V54.4166H80.748Z" fill="#3D3D3D"/>
<path d="M102.324 58.2005H100.96V47.7181H97.2617V46.525H106.023V47.7181H102.324V58.2005Z" fill="#3D3D3D"/>
<path d="M112.907 53.3428V58.2005H111.543V46.525H114.747C116.179 46.525 117.236 46.7977 117.918 47.3432C118.608 47.8886 118.957 48.7152 118.957 49.8146C118.957 51.3614 118.173 52.4054 116.605 52.9508L119.775 58.2005H118.173L115.344 53.3428H112.907ZM112.907 52.1838H114.764C115.727 52.1838 116.435 51.9963 116.878 51.6213C117.321 51.2378 117.543 50.6583 117.543 49.8828C117.543 49.1243 117.313 48.5704 116.861 48.2295C116.405 47.8886 115.676 47.7181 114.679 47.7181H112.907V52.1838Z" fill="#3D3D3D"/>
<path d="M134.249 46.525V54.0758C134.249 55.4052 133.844 56.4535 133.039 57.212C132.229 57.9747 131.121 58.3539 129.715 58.3539C128.318 58.3539 127.231 57.9747 126.46 57.212C125.684 56.4407 125.301 55.3839 125.301 54.0417V46.525H126.664V54.1439C126.664 55.124 126.929 55.874 127.465 56.3938C127.998 56.9179 128.782 57.1779 129.818 57.1779C130.793 57.1779 131.548 56.9179 132.085 56.3938C132.617 55.8612 132.886 55.107 132.886 54.1269V46.525H134.249Z" fill="#3D3D3D"/>
<path d="M149.978 58.2005H148.614V52.6952H142.461V58.2005H141.098V46.525H142.461V51.485H148.614V46.525H149.978V58.2005Z" fill="#3D3D3D"/>
<path d="M156.934 58.2005V46.525H158.297V56.9733H163.445V58.2005H156.934Z" fill="#3D3D3D"/>
<path d="M176.536 58.2006L175.087 54.4849H170.4L168.968 58.2006H167.588L172.207 46.474H173.349L177.951 58.2006H176.536ZM174.661 53.2577L173.298 49.6443C173.127 49.1926 172.944 48.6301 172.752 47.9569C172.637 48.4682 172.471 49.0307 172.258 49.6443L170.877 53.2577H174.661ZM171.781 45.4002C172.041 45.0593 172.318 44.6587 172.616 44.19C172.91 43.7256 173.144 43.3207 173.315 42.9799H174.917V43.1333C174.687 43.4869 174.342 43.9173 173.877 44.4286C173.409 44.9315 173.008 45.315 172.667 45.5877H171.781V45.4002Z" fill="#3D3D3D"/>
<path d="M184.67 53.3429V58.2006H183.307V46.5251H186.511C187.943 46.5251 189 46.7978 189.681 47.3433C190.372 47.8887 190.721 48.7154 190.721 49.8147C190.721 51.3615 189.937 52.4055 188.369 52.9509L191.539 58.2006H189.937L187.108 53.3429H184.67ZM184.67 52.1839H186.528C187.491 52.1839 188.198 51.9964 188.642 51.6214C189.085 51.2379 189.306 50.6584 189.306 49.8829C189.306 49.1244 189.076 48.5705 188.625 48.2296C188.169 47.8887 187.44 47.7182 186.443 47.7182H184.67V52.1839ZM184.074 42.9799H184.994C185.595 43.3676 186.174 43.8662 186.733 44.4798C187.423 43.7895 188.015 43.2867 188.505 42.9799H189.46V43.1673L188.931 43.7128C188.156 44.4968 187.653 45.1232 187.414 45.5877H186.085C185.957 45.3746 185.761 45.1019 185.488 44.7695C185.216 44.4286 184.743 43.896 184.074 43.1673V42.9799Z" fill="#3D3D3D"/>
<path d="M203.782 55.0985C203.782 56.1211 203.407 56.9222 202.657 57.5017C201.915 58.0727 200.905 58.354 199.623 58.354C198.234 58.354 197.173 58.1793 196.436 57.8256V56.5132C196.913 56.7177 197.428 56.8839 197.987 57.0075C198.553 57.1225 199.116 57.1779 199.674 57.1779C200.582 57.1779 201.263 57.0075 201.719 56.6666C202.171 56.3172 202.401 55.8314 202.401 55.2178C202.401 54.8215 202.32 54.4934 202.163 54.2292C202.001 53.9693 201.728 53.7306 201.344 53.5133C200.969 53.3003 200.39 53.0489 199.606 52.7634C198.524 52.3799 197.752 51.9197 197.288 51.3828C196.819 50.8501 196.589 50.1555 196.589 49.3033C196.589 48.4085 196.921 47.6926 197.595 47.1557C198.276 46.6231 199.171 46.3546 200.288 46.3546C201.447 46.3546 202.512 46.5677 203.492 46.9853L203.066 48.1784C202.099 47.7693 201.161 47.5648 200.254 47.5648C199.525 47.5648 198.958 47.7182 198.549 48.025C198.149 48.3318 197.953 48.7664 197.953 49.3204C197.953 49.7209 198.025 50.049 198.174 50.3089C198.319 50.5731 198.57 50.8118 198.924 51.0248C199.286 51.2421 199.832 51.4808 200.56 51.7407C201.788 52.1753 202.627 52.6398 203.083 53.1383C203.547 53.6412 203.782 54.2931 203.782 55.0985Z" fill="#3D3D3D"/>
<path d="M213.525 58.2005H212.162V47.7181H208.463V46.525H217.224V47.7181H213.525V58.2005Z" fill="#3D3D3D"/>
<path d="M229.426 46.525H230.875L226.665 58.2005H225.336L221.143 46.525H222.574L225.267 54.0758C225.574 54.9536 225.817 55.7973 226 56.6154C226.192 55.7546 226.443 54.8896 226.75 54.0246L229.426 46.525Z" fill="#3D3D3D"/>
<path d="M236.247 58.2006V46.5251H237.61V58.2006H236.247ZM236.076 45.4002C236.336 45.0593 236.613 44.6587 236.911 44.19C237.205 43.7256 237.44 43.3207 237.61 42.9799H239.212V43.1333C238.982 43.4869 238.637 43.9173 238.173 44.4286C237.704 44.9315 237.303 45.315 236.962 45.5877H236.076V45.4002Z" fill="#3D3D3D"/>
<path d="M251.65 54.4166V53.2065H255.588V54.4166H251.65Z" fill="#3D3D3D"/>
</svg>
