<?xml version="1.0" standalone="no"?>
<!DOCTYPE svg PUBLIC "-//W3C//DTD SVG 20010904//EN"
 "http://www.w3.org/TR/2001/REC-SVG-20010904/DTD/svg10.dtd">
<svg version="1.0" xmlns="http://www.w3.org/2000/svg"
 width="258.000000pt" height="67.000000pt" viewBox="0 0 258.000000 67.000000"
 preserveAspectRatio="xMidYMid meet">

<g transform="translate(0.000000,67.000000) scale(0.100000,-0.100000)"
fill="#000000" stroke="none">
<path d="M305 626 c-26 -67 -18 -225 13 -263 12 -16 29 -41 38 -58 35 -64 52
-75 120 -75 70 0 75 -4 85 -65 l6 -40 2 38 c2 65 -11 77 -80 77 -75 0 -95 11
-119 63 -11 23 -30 54 -42 70 -30 37 -39 192 -14 251 9 22 14 41 12 43 -2 2
-12 -16 -21 -41z"/>
<path d="M340 638 c-18 -30 -20 -44 -14 -138 7 -116 28 -171 82 -208 33 -24
107 -38 117 -23 4 7 -10 11 -42 11 -42 0 -53 5 -80 33 -47 50 -60 84 -67 187
-5 82 -3 101 13 133 23 46 18 48 -9 5z"/>
<path d="M266 635 c-12 -18 -16 -49 -16 -122 0 -143 4 -152 124 -285 21 -24
33 -28 78 -28 64 0 78 -11 78 -61 0 -21 3 -40 8 -42 4 -3 5 16 4 41 -4 57 -21
72 -79 72 -57 0 -97 21 -113 60 -7 17 -25 39 -40 50 -35 25 -50 83 -50 195 0
58 5 96 15 115 19 36 13 39 -9 5z"/>
<path d="M376 633 c-20 -40 -28 -121 -17 -173 8 -41 9 -36 10 48 1 62 6 103
16 122 9 17 13 30 11 30 -3 0 -12 -12 -20 -27z"/>
<path d="M399 614 c-21 -45 -21 -55 -11 -133 13 -96 32 -124 93 -143 51 -15
92 10 131 80 17 28 27 52 24 52 -3 0 -17 -20 -32 -45 -28 -48 -68 -85 -91 -85
-34 0 -82 33 -98 67 -25 52 -26 180 -2 217 10 15 16 30 13 33 -3 4 -15 -16
-27 -43z"/>
<path d="M216 523 c1 -191 -1 -181 46 -224 27 -24 49 -58 64 -96 27 -70 31
-59 5 15 -12 36 -31 64 -54 83 -47 38 -58 81 -51 189 3 47 2 102 -3 123 -6 26
-8 0 -7 -90z"/>
<path d="M430 610 c-20 -28 -22 -40 -17 -93 9 -92 23 -123 65 -143 32 -15 39
-15 62 -3 23 14 80 101 79 124 0 6 -12 -14 -28 -44 -30 -58 -60 -80 -96 -73
-39 7 -57 37 -68 116 -10 72 -10 77 12 107 12 17 21 33 18 35 -3 3 -15 -9 -27
-26z"/>
<path d="M178 498 c-3 -176 -2 -192 12 -196 30 -10 80 -67 100 -114 l22 -52
-21 -51 c-29 -70 -26 -82 4 -16 19 39 24 63 19 87 -8 46 -56 115 -93 137 -17
10 -31 24 -32 30 0 7 0 78 1 160 1 81 -1 147 -4 147 -3 0 -7 -60 -8 -132z"/>
<path d="M465 598 c-25 -29 -27 -37 -21 -87 10 -87 48 -126 96 -101 24 13 60
83 59 115 0 11 -9 -2 -19 -30 -37 -96 -95 -107 -117 -24 -18 68 -15 95 13 128
14 17 24 31 21 31 -3 0 -17 -14 -32 -32z"/>
<path d="M142 487 c-1 -71 -6 -136 -12 -146 -5 -10 -24 -21 -43 -25 -38 -7
-77 -32 -77 -49 0 -9 2 -9 8 -1 9 14 59 39 94 48 36 8 39 25 36 176 l-4 125
-2 -128z"/>
<path d="M497 592 c-22 -24 -23 -124 -2 -142 29 -24 68 15 79 80 5 30 3 29 -9
-10 -8 -24 -22 -51 -31 -60 -14 -13 -17 -13 -30 4 -22 31 -18 101 8 126 12 11
17 20 11 20 -5 0 -17 -8 -26 -18z"/>
<path d="M112 484 c-2 -117 -5 -126 -52 -137 -14 -3 -34 -13 -45 -21 -13 -10
-1 -8 38 6 68 25 69 27 65 163 l-4 100 -2 -111z"/>
<path d="M516 565 c-9 -25 -7 -75 4 -75 14 0 32 38 28 62 -4 27 -23 34 -32 13z
m23 -17 c0 -7 -4 -22 -9 -33 -7 -17 -9 -15 -9 13 -1 17 4 32 9 32 6 0 10 -6 9
-12z"/>
<path d="M1247 563 c-4 -3 -7 -11 -7 -17 0 -6 5 -5 12 2 6 6 9 14 7 17 -3 3
-9 2 -12 -2z"/>
<path d="M82 487 c-2 -91 -10 -110 -52 -127 -17 -7 -29 -15 -26 -17 6 -6 60
23 75 40 8 10 11 43 8 99 l-3 83 -2 -78z"/>
<path d="M1076 531 c-12 -5 -15 -10 -9 -14 6 -4 16 0 23 8 14 17 13 17 -14 6z"/>
<path d="M1440 526 c7 -7 13 -7 20 0 6 6 3 10 -10 10 -13 0 -16 -4 -10 -10z"/>
<path d="M2455 520 c4 -6 11 -8 16 -5 14 9 11 15 -7 15 -8 0 -12 -5 -9 -10z"/>
<path d="M49 467 c-4 -40 -11 -62 -25 -72 -18 -13 -18 -14 3 -8 17 4 24 15 28
47 4 24 5 54 3 67 -2 13 -6 -2 -9 -34z"/>
<path d="M818 375 c-2 -63 0 -115 3 -115 19 0 28 36 31 128 3 90 1 102 -14
102 -15 0 -17 -15 -20 -115z"/>
<path d="M920 390 c0 -82 3 -100 15 -100 12 0 15 18 15 100 0 82 -3 100 -15
100 -12 0 -15 -18 -15 -100z"/>
<path d="M1010 390 c0 -82 3 -100 15 -100 12 0 15 18 15 100 0 82 -3 100 -15
100 -12 0 -15 -18 -15 -100z"/>
<path d="M1119 471 c15 -28 14 -38 -9 -61 -23 -23 -21 -24 14 -10 34 12 37 64
5 80 -19 10 -20 10 -10 -9z"/>
<path d="M1230 390 c0 -82 3 -100 15 -100 12 0 15 18 15 100 0 82 -3 100 -15
100 -12 0 -15 -18 -15 -100z"/>
<path d="M1402 478 c-24 -24 -13 -56 31 -89 54 -42 58 -49 54 -76 -5 -29 9
-30 23 -3 16 31 4 57 -44 90 -46 31 -59 51 -50 75 7 18 2 19 -14 3z"/>
<path d="M1560 390 c0 -82 3 -100 15 -100 12 0 15 18 15 100 0 82 -3 100 -15
100 -12 0 -15 -18 -15 -100z"/>
<path d="M1672 465 c9 -19 8 -29 -6 -49 -16 -25 -16 -25 6 -17 26 9 36 54 17
77 -19 23 -30 16 -17 -11z"/>
<path d="M1780 400 c4 -66 9 -93 20 -100 24 -15 34 -12 19 7 -9 11 -14 43 -14
99 0 68 -3 84 -15 84 -13 0 -14 -14 -10 -90z"/>
<path d="M1980 390 c0 -82 3 -100 15 -100 12 0 15 18 15 100 0 82 -3 100 -15
100 -12 0 -15 -18 -15 -100z"/>
<path d="M2093 459 c11 -27 10 -33 -9 -48 l-22 -17 22 -10 c27 -12 33 -50 10
-75 -21 -23 -7 -25 24 -3 31 22 29 60 -5 78 -16 8 -22 15 -15 16 7 0 18 11 24
25 9 21 8 28 -7 45 -26 29 -35 25 -22 -11z"/>
<path d="M2239 468 c5 -13 21 -50 36 -83 14 -33 27 -68 28 -77 1 -12 10 -18
25 -18 18 0 22 3 14 13 -5 6 -26 51 -47 100 -21 48 -43 87 -51 87 -10 0 -11
-6 -5 -22z"/>
<path d="M2400 390 c0 -82 3 -100 15 -100 12 0 15 18 15 100 0 82 -3 100 -15
100 -12 0 -15 -18 -15 -100z"/>
<path d="M2509 471 c15 -28 14 -38 -9 -61 -23 -23 -21 -24 14 -10 34 12 37 64
5 80 -19 10 -20 10 -10 -9z"/>
<path d="M617 392 c-48 -89 -87 -106 -157 -70 -25 13 -55 38 -67 57 -26 39
-30 34 -8 -9 8 -16 35 -41 60 -56 75 -43 137 -18 185 76 30 59 19 61 -13 2z"/>
<path d="M627 343 c-26 -43 -27 -48 -14 -77 8 -17 17 -38 20 -46 5 -13 5 -13
6 0 0 8 -6 29 -13 45 -12 27 -11 34 11 73 33 58 25 62 -10 5z"/>
<path d="M1080 372 c0 -13 64 -82 76 -82 11 0 7 12 -15 43 -16 24 -37 44 -45
44 -9 0 -16 -2 -16 -5z"/>
<path d="M1636 367 c21 -37 57 -77 70 -77 21 0 -31 76 -57 83 -12 3 -17 1 -13
-6z"/>
<path d="M2470 372 c0 -13 64 -82 76 -82 11 0 7 12 -15 43 -16 24 -37 44 -45
44 -9 0 -16 -2 -16 -5z"/>
<path d="M652 295 c0 -16 2 -22 5 -12 2 9 2 23 0 30 -3 6 -5 -1 -5 -18z"/>
<path d="M1390 311 c0 -5 7 -12 16 -15 14 -5 15 -4 4 9 -14 17 -20 19 -20 6z"/>
<path d="M70 268 c-19 -13 -36 -30 -38 -38 -3 -8 7 -3 23 12 36 37 83 45 129
23 76 -36 102 -123 63 -207 -9 -21 -15 -38 -12 -38 13 0 45 87 45 121 0 67
-79 149 -145 149 -18 0 -47 -10 -65 -22z"/>
<path d="M570 250 c11 -11 20 -30 21 -42 0 -13 5 -32 10 -43 6 -14 7 -6 3 25
-8 55 -20 80 -39 80 -11 0 -10 -5 5 -20z"/>
<path d="M94 244 c-17 -8 -37 -27 -43 -41 -16 -35 -6 -41 11 -6 29 60 107 66
153 11 30 -36 32 -77 5 -136 -10 -23 -17 -42 -14 -42 10 0 44 86 44 113 0 40
-26 84 -60 102 -36 19 -57 19 -96 -1z"/>
<path d="M1865 230 c-16 -7 -17 -9 -3 -9 9 -1 20 4 23 9 7 11 7 11 -20 0z"/>
<path d="M113 220 c-12 -5 -29 -22 -37 -39 -19 -35 -19 -41 -6 -41 6 0 10 9
10 19 0 28 48 63 74 55 56 -17 70 -62 41 -131 -21 -49 -18 -55 5 -13 19 35 25
85 14 115 -6 15 -54 46 -71 44 -4 0 -18 -4 -30 -9z"/>
<path d="M104 176 c-8 -14 -14 -35 -11 -48 4 -22 4 -21 6 3 0 14 10 34 22 45
41 37 73 -20 50 -89 -10 -29 -9 -30 4 -13 23 30 20 103 -4 116 -31 16 -49 12
-67 -14z"/>
<path d="M992 193 c13 -3 18 -18 21 -56 l3 -52 2 52 c2 45 5 52 25 56 12 2 2
4 -23 4 -25 1 -37 -1 -28 -4z"/>
<path d="M1121 143 c1 -32 4 -46 6 -30 5 34 26 35 42 1 6 -15 14 -24 18 -21 3
4 0 14 -7 22 -11 13 -11 20 0 39 16 31 6 46 -31 46 -29 0 -29 0 -28 -57z m54
27 c0 -8 -10 -16 -22 -18 -18 -3 -23 2 -23 18 0 16 5 21 23 18 12 -2 22 -10
22 -18z"/>
<path d="M1251 167 c-1 -49 14 -77 42 -77 35 0 47 19 45 70 l-1 45 -6 -50 c-5
-45 -9 -50 -33 -53 -29 -3 -33 3 -41 73 -3 26 -4 25 -6 -8z"/>
<path d="M1412 145 c1 -33 3 -48 5 -32 4 23 9 27 38 27 29 0 34 -4 38 -27 2
-16 4 -1 5 32 0 39 -2 51 -7 35 -5 -19 -13 -25 -36 -25 -23 0 -31 6 -36 25 -5
16 -7 4 -7 -35z"/>
<path d="M1572 148 l-2 -58 33 1 c29 2 30 2 5 6 -25 4 -27 9 -31 56 l-3 52 -2
-57z"/>
<path d="M1701 148 c-12 -28 -19 -53 -17 -55 2 -3 7 5 11 16 9 28 55 29 62 1
3 -11 9 -20 13 -20 5 0 -2 25 -13 55 -12 30 -25 55 -28 55 -4 0 -16 -23 -28
-52z m34 -6 c-22 -5 -27 1 -19 23 7 17 8 17 21 -1 12 -17 12 -19 -2 -22z"/>
<path d="M1831 143 c1 -32 3 -49 6 -38 9 38 23 41 49 10 l25 -30 -12 27 c-9
21 -9 31 0 41 19 24 2 47 -35 47 l-34 0 1 -57z m59 27 c0 -15 -7 -20 -25 -20
-18 0 -25 5 -25 20 0 15 7 20 25 20 18 0 25 -5 25 -20z"/>
<path d="M1972 178 c2 -13 13 -27 26 -33 31 -14 28 -43 -5 -48 l-28 -4 26 -2
c29 -1 55 22 44 39 -4 6 -18 16 -32 21 -19 7 -24 15 -20 29 3 11 1 20 -5 20
-5 0 -8 -10 -6 -22z"/>
<path d="M2102 193 c13 -3 18 -18 21 -56 l3 -52 2 52 c2 45 5 52 25 56 12 2 2
4 -23 4 -25 1 -37 -1 -28 -4z"/>
<path d="M2221 195 c-2 -15 32 -105 39 -105 8 0 44 100 38 106 -3 2 -11 -14
-18 -36 -7 -22 -16 -40 -20 -40 -3 0 -13 19 -22 43 -9 23 -17 38 -17 32z"/>
<path d="M2363 145 c0 -33 2 -45 4 -27 2 18 2 45 0 60 -2 15 -4 0 -4 -33z"/>
<path d="M376 155 c4 -26 0 -49 -16 -86 -12 -28 -20 -53 -17 -55 9 -10 49 109
45 136 -5 34 -7 34 51 16 47 -13 59 -30 60 -80 1 -16 4 -27 7 -23 4 3 3 26 0
51 -7 44 -8 45 -61 60 -75 22 -77 22 -69 -19z"/>
<path d="M137 163 c-11 -10 -8 -73 3 -73 6 0 15 11 20 25 14 36 -2 69 -23 48z
m10 -50 c-3 -10 -5 -2 -5 17 0 19 2 27 5 18 2 -10 2 -26 0 -35z"/>
<path d="M337 123 c-3 -10 -13 -40 -21 -68 -9 -27 -13 -45 -8 -40 12 15 45
115 39 121 -2 3 -7 -3 -10 -13z"/>
<path d="M410 113 c-6 -16 -14 -37 -19 -48 -5 -11 -12 -29 -16 -40 -11 -35 10
-2 30 45 10 25 23 50 28 55 12 15 37 -23 38 -59 2 -28 2 -28 6 -5 10 66 -46
110 -67 52z"/>
<path d="M818 133 c7 -3 16 -2 19 1 4 3 -2 6 -13 5 -11 0 -14 -3 -6 -6z"/>
<path d="M2528 133 c7 -3 16 -2 19 1 4 3 -2 6 -13 5 -11 0 -14 -3 -6 -6z"/>
<path d="M422 68 c-17 -17 -15 -48 2 -48 18 0 32 38 19 51 -5 5 -14 4 -21 -3z
m9 -31 c-8 -8 -11 -7 -11 4 0 20 13 34 18 19 3 -7 -1 -17 -7 -23z"/>
</g>
</svg>
