<svg width="153" height="138" viewBox="0 0 153 138" fill="none" xmlns="http://www.w3.org/2000/svg">
<mask id="mask0_2328_28121" style="mask-type:luminance" maskUnits="userSpaceOnUse" x="30" y="19" width="10" height="23">
<path d="M30.207 19.3647H39.26V41.071H30.207V19.3647Z" fill="white"/>
</mask>
<g mask="url(#mask0_2328_28121)">
<path d="M37.6157 37.8361C37.919 37.249 37.919 36.1305 37.919 35.4456C37.994 33.665 38.1473 32.0149 38.3756 30.231C38.9626 26.5133 38.7539 23.1576 38.6006 19.6486C38.0136 20.6171 37.332 21.5824 36.7418 22.551L36.82 22.8543C36.895 24.2761 36.895 25.6784 36.82 27.1036C36.5917 30.3843 36.2298 33.7205 35.8515 37.0012V37.1545L35.7014 37.2295C34.0676 37.8165 32.4175 38.4263 30.8651 39.0883C30.7119 39.6754 30.6369 40.3602 30.5586 41.0222C31.1489 40.7189 31.6804 40.4906 32.2674 40.3602C33.386 39.9036 36.9505 38.8796 37.6353 37.8165L37.6157 37.8361Z" fill="white"/>
</g>
<mask id="mask1_2328_28121" style="mask-type:luminance" maskUnits="userSpaceOnUse" x="30" y="13" width="15" height="35">
<path d="M30.207 13.5208H44.2692V47.75H30.207V13.5208Z" fill="white"/>
</mask>
<g mask="url(#mask1_2328_28121)">
<path d="M33.0644 45.5193C33.1394 45.441 33.2927 45.366 33.2927 45.366L36.9354 43.5072C38.8693 42.5419 41.1815 41.195 42.075 39.0329C42.6033 37.761 42.662 36.3587 42.662 35.0118C42.737 32.8497 42.662 30.8376 42.812 28.6754C43.0403 24.8077 43.7806 19.0615 43.4773 13.7882C42.812 14.5285 42.1305 15.2101 41.4652 15.9504C41.4652 17.8092 41.3902 19.5148 41.3152 20.8617C41.2402 24.7327 40.9369 28.6004 40.7282 32.4877C40.6499 34.1183 40.8032 37.6273 39.9879 39.0492C39.3226 40.246 37.5975 41.0613 36.4039 41.6483C34.7733 42.4636 32.4579 43.5822 30.2957 44.854C30.2957 45.3106 30.2207 45.7443 30.2207 46.2009C30.2207 46.6575 30.2957 46.8662 30.2957 47.1695C31.186 46.6574 32.0796 46.1259 33.0449 45.5356L33.0644 45.5193Z" fill="white"/>
</g>
<mask id="mask2_2328_28121" style="mask-type:luminance" maskUnits="userSpaceOnUse" x="30" y="10" width="18" height="42">
<path d="M30.207 10.1813H47.6086V51.0893H30.207V10.1813Z" fill="white"/>
</mask>
<g mask="url(#mask2_2328_28121)">
<path d="M43.4961 45.2159C44.6146 44.6844 45.5049 44.0191 46.1115 42.9005C47.3084 40.5101 46.7018 36.2641 46.7768 33.5899C47.0801 25.9816 47.3084 18.3211 46.9268 10.6411C46.2648 11.2281 45.5799 11.7597 44.9929 12.3467C45.0679 14.2056 45.2212 16.0644 45.2212 17.9233C45.2962 21.791 45.2212 25.662 45.2212 29.5493C45.1462 32.0148 45.1462 34.5356 44.9929 37.0011C44.9179 38.4262 44.9179 40.3601 44.6146 41.6874L44.5396 41.7624C43.1145 43.7745 40.5936 44.0778 38.3565 44.7398C35.379 45.6301 32.9136 46.827 30.3145 48.4575C30.3895 49.2728 30.4645 50.0881 30.5427 50.923C31.1297 50.336 31.7363 49.7294 32.5516 49.2924C36.1943 47.2053 39.7783 46.827 43.4961 45.1964V45.2159Z" fill="white"/>
</g>
<path d="M40.1558 51.4741C42.2429 50.8088 44.3301 50.2773 46.4139 49.7653C47.3825 49.5403 48.8044 49.2337 49.5446 48.5717C50.2849 47.8314 50.5132 46.5596 50.6632 45.5192C50.9665 43.2788 50.9665 40.7579 51.0415 38.4425C51.1198 33.6845 51.9351 18.6995 51.1198 7.60498C50.4545 7.98328 49.8479 8.42027 49.1827 8.95184C49.6197 16.9189 49.4859 25.0359 49.1827 33.0192C49.1077 36.4532 49.1077 39.9427 48.9576 43.2984C48.8794 44.417 48.8794 46.2758 47.9891 47.0911C47.2488 47.7564 45.4486 47.9847 44.4801 48.2097C41.8059 48.7413 39.3405 49.5566 36.875 50.6751C34.5629 51.7187 32.6257 53.0656 31.1484 55.0777C31.3767 56.043 31.5267 56.9366 31.7354 57.8269C33.366 54.9244 35.8315 52.9906 40.1558 51.4937V51.4741Z" fill="white"/>
<path d="M91.1004 16.3091C90.7971 19.8181 92.219 25.548 92.9593 29.1124C93.6245 32.3181 95.1964 35.5238 98.3271 36.7761C100.718 37.7414 103.392 37.3631 105.629 36.1859C106.822 35.4456 108.303 34.0237 109.06 32.8301C111.222 29.3961 112.931 24.8631 113.821 20.9954C113.896 20.4638 114.049 19.9518 114.124 19.4985C113.69 18.8332 113.234 18.2266 112.777 17.6396C112.324 19.6485 111.509 21.6574 110.693 23.9728C109.193 27.9938 108.075 33.4367 103.313 34.839C100.108 36.1859 96.6183 34.252 95.4997 31.1245C94.3061 27.9188 94.4561 24.4294 93.3375 21.2237V21.1454C92.9593 14.9655 93.0343 12.2131 98.5554 8.11705C99.2174 7.58548 99.9023 7.22675 100.639 6.8452C99.9773 6.3919 99.2924 6.02991 98.7054 5.65161C94.6844 8.11705 91.3287 12.5001 91.1004 16.3091Z" fill="white"/>
<path d="M87.4406 23.4608C87.7439 26.0795 88.1776 29.5689 88.9375 32.0344C90.6431 37.761 91.9149 39.8481 97.6415 41.932C100.544 42.9756 103.521 43.2789 106.29 41.707C111.658 38.5763 113.745 29.719 117.235 24.8076L117.31 24.7326C116.931 24.0674 116.569 23.3858 116.191 22.7205C115.754 23.3858 115.226 23.9924 114.694 24.8076C111.563 29.4157 110.086 37.9143 104.49 40.2264C100.316 41.857 94.5891 39.7144 92.4269 35.8271C90.2648 31.8811 89.8865 26.5915 89.3745 22.1889C88.5592 15.8558 87.7993 13.8436 91.9736 8.70403C93.4705 6.84517 94.4391 5.3483 95.6131 4.15471C95.0815 3.92643 94.4945 3.64271 93.9825 3.41443C90.93 6.54188 87.3623 10.1846 86.834 14.6622C86.5275 17.0493 87.1373 21.0704 87.421 23.4412L87.4406 23.4608Z" fill="white"/>
<path d="M32.9263 35.39C33.8949 33.8931 33.8199 31.294 33.5916 28.9036C32.623 31.369 31.8077 33.9681 31.2012 36.7173C31.8664 36.414 32.473 35.977 32.91 35.3704L32.9263 35.39Z" fill="white"/>
<path d="M103.391 25.6979C106.29 24.2011 108.834 12.9533 104.51 12.6696C99.9019 12.4413 98.9137 24.8827 103.391 25.6979ZM104.053 21.5269L103.75 23.2325C103.088 22.8542 103.218 23.3075 103.143 23.9728L102.706 21.5824C102.935 18.9082 102.556 17.5613 103.75 14.9459L103.903 14.5643L104.207 14.9459C105.325 16.6515 104.357 19.5539 104.053 21.5074V21.5269Z" fill="white"/>
<path d="M98.4617 11.2478C95.1777 14.9655 96.5246 18.2462 96.6778 22.6455C96.8279 25.3197 96.2996 26.5915 97.7214 29.132C101.664 36.0554 107.26 29.5853 108.966 24.6544C109.934 21.9052 110.825 18.4712 110.75 15.3438C110.009 14.4535 109.269 13.7132 108.438 12.8783C109.781 17.6396 107.394 26.4383 105.079 28.2971C103.22 31.5028 99.939 29.4157 99.0487 26.5915C98.4617 24.2011 97.7769 17.0494 98.5367 14.8318C99.1987 12.6696 102.254 9.92047 104.87 9.7672C104.208 9.2552 103.448 8.72363 102.783 8.27032C101.077 8.85733 99.502 10.0509 98.4617 11.2478Z" fill="white"/>
<path d="M79.5466 14.2251C79.0346 18.8331 78.9596 23.764 79.4716 28.372C80.2869 35.2954 82.6773 43.6408 88.7072 47.6618C91.3814 49.4424 94.5871 51.8328 97.7178 52.4198C105.248 53.9754 111.79 49.8239 115.449 43.4875C117.004 40.8916 118.426 38.1979 120.001 35.5987C120.305 34.9921 120.588 34.4801 120.97 33.8931C120.742 33.0778 120.438 32.1843 120.155 31.3494C119.698 32.0147 119.261 32.6963 118.808 33.3616C117.461 35.3704 116.342 37.6859 115.24 39.848C108.623 52.0611 101.396 53.7667 89.8454 46.1812C79.1879 39.1077 81.6533 24.5043 81.8033 13.6348C81.8033 9.38877 83.9655 4.55247 87.0962 1.27174C86.4309 1.04346 85.6743 0.890187 84.934 0.740173C83.7405 2.23705 82.7719 3.79262 82.0316 5.06447C80.6097 7.22662 79.9445 11.6259 79.5662 14.2251H79.5466Z" fill="white"/>
<path d="M83.4194 23.4608C84.0814 28.222 84.5379 35.5988 87.0588 39.6948C88.9959 42.9005 92.2767 44.6844 95.7074 46.0312C105.987 50.0523 111.563 42.9005 115.812 34.7835L119.243 28.9036C118.94 28.0883 118.581 27.3481 118.203 26.5132C117.388 27.8601 116.494 29.1874 115.754 30.6875C114.485 33.0779 113.288 35.4455 111.811 37.6859C106.29 46.1063 99.748 47.8118 91.3277 41.4787C85.2195 36.8706 84.9912 22.1889 85.2945 15.1904C85.5228 9.90084 87.3817 5.57654 91.4027 2.44583C90.6624 2.21755 89.9058 1.99253 89.2405 1.78381C88.5785 2.37082 87.9687 2.9774 87.4567 3.56441C82.3171 9.74757 83.2106 15.9307 83.4389 23.4608H83.4194Z" fill="white"/>
<path d="M53.2642 76.7155C53.5674 73.3597 54.0794 69.055 49.3932 69.4137C47.231 71.5759 47.081 77.0775 48.1996 79.6929C48.5779 80.3582 49.0899 81.193 49.9834 81.193C51.764 81.193 53.0359 78.1406 53.2642 76.7155ZM50.9487 79.0309L50.8737 79.6179L50.4954 79.0863C49.2986 77.3807 49.0736 73.0564 50.4172 71.4259L50.6454 71.1226L50.7987 71.5009C51.689 73.738 51.177 76.6405 50.9487 79.0309Z" fill="white"/>
<path d="M97.4914 64.0655C92.1235 63.8405 86.3969 64.2938 82.1476 60.2728C80.1387 58.3389 79.8354 56.8421 78.7136 54.3929C77.6733 52.2308 76.6297 51.1872 74.8459 49.6349C73.6523 48.8946 71.1281 46.7325 70.2933 45.6139C67.6974 41.9712 67.1658 36.375 67.0876 32.0507C67.0125 29.4548 67.0876 26.8361 67.1658 24.237C67.2408 22.2281 67.2408 19.9909 67.0125 17.9788C66.7843 16.0449 65.969 11.2836 66.5756 9.40847C66.8788 8.51491 67.6191 7.54961 68.0757 6.65605C69.1943 4.64718 70.0846 2.48503 70.8999 0.322876C70.3128 0.397883 69.6313 0.551157 69.041 0.626164C68.816 1.28818 68.454 2.04803 68.0007 2.93833C66.7288 5.53747 64.945 6.95934 64.4917 10.0901C64.0351 13.1425 64.9254 16.0449 65.1537 19.0224C65.5907 28.108 63.2198 39.5807 69.2497 47.3195C70.9586 49.5566 72.7587 50.2219 74.7709 52.0058C79.3789 56.0235 76.4014 60.1228 84.1597 64.0655C87.1372 65.6211 90.4179 65.8494 93.6986 65.8494C96.9794 65.8494 99.8035 65.6961 102.403 66.6647H102.478L102.556 66.7397C104.337 69.8704 103.296 75.3133 104.128 78.8777C104.431 80.0746 104.718 81.2682 104.943 82.4454C105.533 81.9889 106.065 81.5519 106.577 81.0986C105.987 78.8614 105.533 76.8493 105.38 74.5371C104.793 66.4951 106.955 64.408 97.4914 64.0297V64.0655Z" fill="white"/>
<mask id="mask3_2328_28121" style="mask-type:luminance" maskUnits="userSpaceOnUse" x="70" y="0" width="42" height="80">
<path d="M70.1523 0H111.06V79.4745H70.1523V0Z" fill="white"/>
</mask>
<g mask="url(#mask3_2328_28121)">
<path d="M109.346 66.4364C109.118 64.5776 108.834 61.8871 107.412 60.5566C106.14 59.288 104.053 59.288 102.348 59.438C98.1734 59.8195 92.6555 60.1033 88.6345 58.851C86.1691 58.0357 84.3852 56.7638 83.1916 54.4517C81.561 51.4742 81.4078 48.2685 79.0956 45.4411C76.5519 42.4636 74.9996 42.1604 73.6527 37.8361C72.6092 34.327 72.6092 30.1756 72.6842 26.5133C72.7592 22.189 71.9439 17.8647 72.1722 13.56C72.3254 10.2042 74.4876 4.24935 77.1617 6.10352e-05H74.8463C74.618 0.512063 74.3147 0.968626 74.106 1.49693C72.2472 5.21466 70.6753 8.95195 70.3883 13.2012C70.2383 15.2101 70.3883 17.2973 70.4666 19.3061C70.6166 22.0586 70.6916 24.8827 70.6916 27.6515C70.6916 32.8693 70.7699 38.6709 74.1256 42.9202C74.9409 43.9638 75.9095 44.9291 76.7247 45.9727C77.8433 47.3195 78.8869 48.7218 79.7022 50.297H79.7772C86.0354 71.7489 105.4 54.905 107.106 64.5221L108.965 78.8973C109.555 78.3103 110.086 77.7788 110.598 77.1918L110.52 76.8885C109.933 73.3795 109.705 69.965 109.327 66.456L109.346 66.4364Z" fill="white"/>
</g>
<mask id="mask4_2328_28121" style="mask-type:luminance" maskUnits="userSpaceOnUse" x="81" y="71" width="17" height="22">
<path d="M81.002 71.9608H97.6991V92.043H81.002V71.9608Z" fill="white"/>
</mask>
<g mask="url(#mask4_2328_28121)">
<path d="M92.0684 72.7729C91.4031 72.7729 90.7215 72.9979 90.1313 73.2262C89.316 73.6077 88.5789 74.1948 87.8941 74.7263C86.3385 75.9949 86.9288 79.5626 84.9167 82.9184C83.8731 84.4739 83.1328 85.7458 82.6795 87.6047C82.3762 89.0265 82.0142 90.5038 81.7109 92.004C82.3762 91.929 83.0578 91.8507 83.7231 91.7757C84.1764 89.1765 84.8417 86.7861 85.5819 85.3642C87.2125 82.6151 87.5908 82.8988 88.3311 79.5626C88.9181 76.9439 89.0714 75.1601 92.0488 74.8013H92.1988L92.2771 74.8763C95.4796 77.5505 95.2545 83.8869 94.6643 88.5895C95.3295 88.2862 96.0111 88.0025 96.6764 87.6992C96.9047 85.4588 97.1134 83.2967 96.9047 81.5911C96.6014 78.9919 95.7078 72.8088 92.0684 72.8088V72.7729Z" fill="white"/>
</g>
<path d="M56.7533 69.3389C54.8944 66.2864 50.6451 64.1993 47.1361 65.8298C46.3991 66.2081 45.7143 66.6451 45.2023 67.2517C42.9651 69.6421 42.4531 73.4349 42.6618 76.5656C42.6618 76.9439 42.7368 77.3059 42.7368 77.7592C43.6271 78.6527 44.5207 79.543 45.411 80.3583C44.5207 77.8179 44.0641 74.9154 44.5957 72.9033C45.411 69.7008 47.6481 66.2668 51.4441 67.4604C54.3433 68.429 55.6901 70.3629 55.5401 73.4153C55.3869 76.0145 54.1933 82.9575 51.1376 84.8163C51.6496 85.1196 52.1811 85.4033 52.6931 85.7816C54.7803 84.2261 56.0521 81.3823 56.7142 79.0865C57.3794 76.6993 58.136 71.5564 56.7142 69.3389H56.7533Z" fill="white"/>
<path d="M119.7 53.4831C119.625 55.9486 119.853 58.1694 120.287 60.4816C120.877 58.776 121.33 56.9726 121.712 55.192L121.634 54.5267C121.559 52.0613 121.862 50.734 122.449 49.5404C122.527 48.4186 122.602 47.3 122.602 46.1814V45.9531C120.972 48.1153 119.7 50.0524 119.7 53.4831Z" fill="white"/>
<path d="M115.755 53.0297C115.452 51.6045 117.18 49.1587 117.842 48.0401C119.342 45.6497 120.894 43.4321 122.32 41.1166C122.241 40.0731 122.091 38.9545 121.863 37.9142C120.894 39.7698 118.732 43.9441 116.877 46.3345C110.694 53.995 115.302 53.1047 116.952 59.5161C117.483 61.6 117.767 63.9154 117.917 66.3613C118.507 65.2427 118.961 64.1241 119.398 63.0056C118.961 59.5716 118.279 56.7441 117.389 55.6256C116.877 54.9635 115.908 53.92 115.755 53.0297Z" fill="white"/>
<mask id="mask5_2328_28121" style="mask-type:luminance" maskUnits="userSpaceOnUse" x="74" y="0" width="42" height="75">
<path d="M74.3242 0H115.232V74.4654H74.3242V0Z" fill="white"/>
</mask>
<g mask="url(#mask5_2328_28121)">
<path d="M110.822 55.8539C108.356 54.3571 97.8683 54.5821 94.5876 54.4321C87.2859 54.1288 80.9527 43.8496 78.5036 37.8165C76.0381 32.1649 78.2003 27.4623 77.4633 21.7357C76.723 15.7808 75.2228 12.4218 77.9753 6.54191C79.0156 4.22975 80.3624 2.1426 82.1463 0.362009C81.331 0.208735 80.5711 0.133728 79.7559 0.133728C78.5623 1.6893 77.3687 3.48946 76.7784 4.60804C71.9421 13.4654 76.0381 18.2462 75.5098 27.1035C75.2815 31.2746 74.8445 34.0237 76.4751 38.0447C77.9753 41.8375 81.1614 47.3586 83.9301 50.4111C87.9512 54.8104 92.5005 56.5192 98.3803 56.5942C100.467 56.6692 102.63 56.5192 104.792 56.5192C106.954 56.5192 108.226 56.5942 109.553 57.4845C111.715 58.8314 112.759 67.3104 113.271 73.8719C113.933 73.0566 114.464 72.2413 115.051 71.4064C114.311 63.8014 113.043 57.2562 110.805 55.8344L110.822 55.8539Z" fill="white"/>
</g>
<mask id="mask6_2328_28121" style="mask-type:luminance" maskUnits="userSpaceOnUse" x="76" y="65" width="26" height="28">
<path d="M76.8301 65.2818H101.876V92.0429H76.8301V65.2818Z" fill="white"/>
</mask>
<g mask="url(#mask6_2328_28121)">
<path d="M93.1875 68.9017C91.4786 68.6767 89.9817 68.1614 88.4262 67.4049C87.3826 66.8929 86.114 66.2863 84.9172 66.133C84.1769 65.983 83.4953 66.133 82.83 66.4363C82.243 66.6646 81.5614 66.9679 81.4081 67.6331C80.8961 69.4137 84.3106 72.6195 82.605 77.3221C81.4864 80.4528 79.5493 82.9769 78.584 86.2576C77.9937 88.1915 77.5404 90.1254 77.1621 92.1342V92.2875C77.7491 92.2875 78.4307 92.2875 79.096 92.2125C79.4743 90.4287 79.9113 88.5698 80.4428 86.7696C81.4081 83.4106 83.267 80.9648 84.4639 77.759C85.3541 75.4469 85.5042 73.8913 84.5389 71.6542C84.0073 70.4573 83.5703 69.567 83.4953 68.2952V67.9919H83.7986C85.1454 68.1451 87.0043 68.4484 87.9696 69.492C88.5599 69.717 89.2415 69.8703 89.9067 70.079C89.9067 70.154 89.9817 70.154 90.0567 70.154C90.285 70.154 90.6438 70.3823 90.722 70.4573C91.9906 71.0443 91.309 71.1976 92.8059 70.9139C94.0027 70.6856 95.33 70.7606 96.3736 71.5009C99.1978 73.588 99.1228 80.3582 99.4261 83.5639C99.5011 84.3042 99.5793 85.1195 99.7293 86.0294C100.395 85.6511 101.001 85.2141 101.663 84.8325C101.285 81.4768 100.848 78.3461 100.623 76.6405C99.6543 70.8356 99.1228 69.717 93.1679 68.9017H93.1875Z" fill="white"/>
</g>
<path d="M68.3787 67.4049C65.7046 61.6783 61.4553 56.2322 55.4254 53.845C50.8728 51.9862 45.8865 52.2895 41.5035 54.3766C37.9945 56.0822 35.0921 58.8509 33.1582 62.2654C33.4615 63.0806 33.8235 63.8959 34.2018 64.7308C34.5801 63.7622 35.0921 62.7969 35.7019 61.9034C38.5261 57.5791 43.8939 54.6799 48.9585 54.6016C49.7738 54.6016 50.5141 54.6016 51.2707 54.7549C55.595 55.4169 59.466 58.1856 62.2902 61.3914C65.6459 65.2624 68.7766 71.5205 67.808 76.7351V76.8101L61.8532 89.9917C62.4434 90.145 63.05 90.3733 63.637 90.5038L64.0153 89.7667C64.8306 88.0579 65.5905 86.3327 66.4808 84.5489C69.6115 78.594 71.6203 74.0414 68.4179 67.4245L68.3787 67.4049Z" fill="white"/>
<path d="M60.4882 61.3717C57.4325 58.3943 53.1864 56.8974 48.9371 57.1257C44.6128 57.354 40.7418 59.3628 38.1264 62.7969C37.0078 64.3524 36.1925 66.0026 35.5859 67.7832C36.0979 68.6767 36.6262 69.642 37.2165 70.5323C38.0318 66.6646 39.8907 62.9273 43.3214 60.7097C46.2238 58.8508 49.8861 58.4726 53.1669 59.5161C56.1443 60.4064 58.7434 62.112 60.6186 64.6557C64.7146 70.229 63.521 77.4558 60.3936 83.2019C59.7283 84.4738 59.1217 85.8011 58.4565 87.1479C58.2314 87.5262 58.0227 87.9632 57.7162 88.3415C58.3064 88.6448 58.913 88.8535 59.5 89.0818C59.7283 88.7035 59.9566 88.3415 60.1653 87.9632C62.0992 84.5292 64.9233 78.9559 65.1516 75.0849C65.5332 70.0203 64.1863 65.034 60.4686 61.3717H60.4882Z" fill="white"/>
<path d="M92.2179 82.5204C88.4252 79.9799 86.7 86.9947 86.625 91.169C88.1969 90.7907 89.7525 90.3537 91.2526 89.8971L91.6309 89.2351C92.5212 87.5263 94.38 83.9422 92.2179 82.5399V82.5204ZM91.2526 84.3792C91.0993 86.0848 90.359 87.66 89.5437 89.1405L89.2405 89.7275L89.0904 89.1405C88.5784 87.1284 89.2405 85.3445 90.871 84.151L91.308 83.7727L91.233 84.3597L91.2526 84.3792Z" fill="white"/>
<path d="M50.1341 61.3718C45.8098 61.2968 42.379 63.7623 40.4614 67.555C39.5711 69.1888 39.0396 70.989 38.7559 72.8479C39.4179 73.7382 40.1777 74.7067 40.918 75.522C40.993 71.8043 42.0366 67.405 44.939 65.0146C45.2423 64.7113 45.601 64.5026 45.9826 64.2743C48.96 62.6437 52.8278 63.309 55.5215 65.1678C59.0305 67.555 60.2045 71.426 59.3142 75.447C58.9359 77.0189 57.5304 80.9649 56.5651 82.2172C56.0531 83.8478 55.5215 85.3446 54.5529 86.7698C55.0845 87.0731 55.5965 87.3568 56.1835 87.5851C58.4989 83.489 60.3578 80.13 61.3231 75.1437C62.7482 67.992 57.3804 61.5056 50.1536 61.3718H50.1341Z" fill="white"/>
<mask id="mask7_2328_28121" style="mask-type:luminance" maskUnits="userSpaceOnUse" x="59" y="1" width="22" height="92">
<path d="M59.2949 1.83276H80.1664V92.043H59.2949V1.83276Z" fill="white"/>
</mask>
<g mask="url(#mask7_2328_28121)">
<path d="M79.7046 74.4783C80.0829 71.9379 79.3263 69.642 78.1295 67.4049C76.8576 65.0145 75.5303 62.5686 75.3803 59.8749C75.3053 58.7563 75.002 57.941 74.565 56.9724C71.2843 49.7457 63.4706 52.3644 61.9704 40.7384C60.7768 31.731 62.7857 22.2671 62.0454 13.1065C61.7422 9.59753 61.1551 6.02982 61.4584 2.4458C60.8714 2.67408 60.2648 2.90236 59.6778 3.11108C59.5996 6.39181 59.9029 9.95626 60.1116 12.8587C60.6431 22.0193 58.918 31.4832 59.9616 40.4905C60.4149 44.6648 61.7422 48.2293 65.0261 50.998C67.035 52.7068 70.0125 53.9004 71.6626 55.8343C71.8909 56.1376 72.0996 56.3659 72.2496 56.6496C73.1432 58.0747 73.5215 60.0086 73.8802 61.6392C74.4118 63.7263 74.9238 65.6602 76.0423 67.519C78.7948 72.2771 78.7165 74.0055 76.1206 78.9168C75.152 80.7006 74.49 82.6345 73.9585 84.5684C73.2932 86.7305 72.7616 89.4797 72.0213 92.0234C72.6116 92.0984 73.2932 92.1734 73.9585 92.1734C74.1835 90.9798 74.49 89.708 74.7738 88.534C75.4358 85.7065 76.4043 83.0878 77.5979 80.4137C78.4132 78.5548 79.3818 76.5459 79.6851 74.4588L79.7046 74.4783Z" fill="white"/>
</g>
<path d="M68.2258 58.9847C66.3669 56.366 64.2048 54.0701 61.4556 52.345C60.262 51.6047 58.1749 50.7144 57.2846 49.6708C55.5757 47.9652 56.0127 44.3029 56.241 42.1408C57.2063 32.7552 56.5443 23.5163 56.6943 14.1307C56.7726 11.2282 56.6193 8.32581 56.5443 5.42337V4.45807C55.9573 4.76136 55.3507 5.04508 54.6854 5.42337V5.65165C54.7604 8.47908 54.9137 11.3032 54.9137 14.147C54.7604 23.2326 55.292 32.3932 54.4017 41.4038C54.1734 44.0779 53.5864 49.2175 55.8986 51.3014C56.8672 52.195 58.5727 52.857 59.8446 53.5418C62.1568 54.8887 63.9406 56.5193 65.5712 58.5281C69.3639 63.4394 74.7318 72.6 71.8294 78.8615C71.0923 80.4921 69.9705 81.7606 69.2139 83.3358C68.3986 85.1196 68.0953 87.1285 67.355 89.007C67.1268 89.7472 66.768 90.5038 66.4647 91.2441C67.0518 91.3191 67.7333 91.4724 68.3986 91.6224C68.4736 91.3974 68.5486 91.2441 68.6236 91.0354C69.4422 89.2548 69.8205 87.4709 70.4075 85.5925C70.5608 85.1392 70.7858 84.7022 70.9945 84.2457C71.7348 82.6901 72.8534 81.3432 73.5936 79.7713C76.5711 73.8165 71.8881 63.8406 68.2258 58.9847Z" fill="white"/>
<path d="M0.572964 120.576L0.546875 120.236C1.20563 120.236 1.67198 119.936 1.94265 119.336C2.21985 118.743 2.36008 117.846 2.36008 116.636V102.365C2.36008 101.801 2.22311 101.446 1.9557 101.296C1.6948 101.139 1.27085 101.061 0.690366 101.061V100.748H6.71699V101.061C6.13324 101.061 5.70277 101.139 5.42557 101.296C5.1549 101.446 5.02119 101.801 5.02119 102.365V116.245C5.02119 117.246 4.91683 118.038 4.70812 118.619C4.4994 119.199 4.19285 119.63 3.79499 119.91C3.40365 120.188 2.93405 120.367 2.38617 120.445C1.8383 120.53 1.23172 120.576 0.572964 120.576Z" fill="white"/>
<path d="M10.5701 116.78V102.365C10.5701 101.801 10.4331 101.446 10.1657 101.296C9.89504 101.139 9.47435 101.061 8.90039 101.061V100.748H14.927V101.061C14.3433 101.061 13.9128 101.139 13.6356 101.296C13.3649 101.446 13.2312 101.801 13.2312 102.365V116.78C13.2312 117.347 13.3649 117.706 13.6356 117.862C13.9128 118.012 14.3335 118.084 14.9009 118.084L14.927 118.397H8.90039V118.084C9.47435 118.084 9.89504 118.012 10.1657 117.862C10.4331 117.706 10.5701 117.347 10.5701 116.78Z" fill="white"/>
<path d="M16.6133 118.397V118.084C17.1775 118.084 17.5949 118.006 17.8656 117.849C18.1428 117.686 18.283 117.327 18.283 116.779V102.365C18.283 101.801 18.1428 101.445 17.8656 101.295C17.5949 101.139 17.1775 101.061 16.6133 101.061V100.748H23.4878C24.3912 100.748 25.2749 100.793 26.1359 100.878C27.0033 100.966 27.786 101.158 28.4839 101.452C29.1883 101.739 29.7492 102.169 30.1667 102.743C30.5906 103.317 30.8059 104.087 30.8059 105.052C30.8059 106.011 30.6102 106.781 30.2188 107.361C29.834 107.935 29.322 108.379 28.6796 108.692C28.0437 108.998 27.3523 109.201 26.6055 109.305C25.8652 109.409 25.1445 109.461 24.4401 109.461H23.4226C23.7422 109.967 24.1009 110.335 24.4922 110.57C24.8901 110.798 25.2814 110.909 25.6663 110.909C26.1163 110.909 26.5403 110.759 26.9316 110.453L31.2885 116.779C31.6603 117.295 32.0484 117.64 32.4495 117.823C32.8473 117.999 33.2746 118.084 33.7279 118.084V118.397H31.3407C30.6787 118.397 30.1014 118.26 29.6057 117.98C29.1101 117.693 28.6731 117.337 28.3013 116.91C27.936 116.486 27.6001 116.055 27.2968 115.618L23.0573 109.461H20.9441V116.779C20.9441 117.327 21.0778 117.686 21.3485 117.849C21.6159 118.006 22.0431 118.084 22.6269 118.084V118.397H16.6133ZM20.9441 109.148H23.5139C24.3748 109.148 25.151 109.037 25.8489 108.809C26.5533 108.584 27.1142 108.18 27.5316 107.596C27.9556 107.006 28.1708 106.168 28.1708 105.078C28.1708 103.774 27.8056 102.779 27.0751 102.091C26.3511 101.406 25.3173 101.061 23.9705 101.061H20.9441V109.148ZM23.4226 99.1692L20.7615 95.0601H20.905L23.9705 98.0865L27.049 95.0601H27.2186L24.5314 99.1692H23.4226Z" fill="white"/>
<path d="M41.3274 118.397H35.3008V118.084C35.8813 118.084 36.3052 118.012 36.5661 117.862C36.8335 117.706 36.9705 117.347 36.9705 116.78V102.365C36.9705 101.801 36.8335 101.446 36.5661 101.296C36.3052 101.139 35.8813 101.061 35.3008 101.061V100.748H41.3274V101.061C40.7534 101.061 40.3262 101.139 40.049 101.296C39.7686 101.446 39.6316 101.801 39.6316 102.365V116.78C39.6316 117.347 39.7686 117.706 40.049 117.862C40.3262 118.012 40.7469 118.084 41.3144 118.084L41.3274 118.397ZM37.5836 98.5432H37.1662L38.6663 94.1602H40.4143L37.5836 98.5432Z" fill="white"/>
<path d="M50.2852 118.397V111.131H50.5982C50.5982 112.749 50.833 114.073 51.3026 115.097C51.7722 116.124 52.4049 116.881 53.2072 117.367C54.0159 117.846 54.9095 118.084 55.8944 118.084C56.5107 118.084 57.0716 117.993 57.5771 117.81C58.0891 117.621 58.4968 117.311 58.8033 116.884C59.1066 116.46 59.2599 115.889 59.2599 115.175C59.2599 114.497 59.0446 113.877 58.6207 113.31C58.1935 112.746 57.6358 112.208 56.951 111.692C56.2629 111.17 55.5421 110.658 54.7856 110.153C54.029 109.651 53.305 109.122 52.6201 108.575C51.932 108.02 51.3744 107.42 50.9504 106.774C50.5232 106.132 50.3112 105.424 50.3112 104.648C50.3112 103.709 50.5624 102.936 51.0678 102.326C51.5798 101.71 52.2223 101.25 52.9984 100.943C53.7713 100.64 54.554 100.487 55.3465 100.487C55.9531 100.487 56.4716 100.549 56.8988 100.67C57.3325 100.784 57.701 100.927 58.0076 101.1C58.3109 101.266 58.5881 101.41 58.8424 101.53C59.0936 101.654 59.3414 101.713 59.586 101.713C59.9056 101.713 60.1241 101.645 60.2382 101.504C60.3491 101.358 60.4078 101.107 60.4078 100.748H60.7209V106.461H60.4078C60.4078 105.385 60.1991 104.436 59.7817 103.618C59.3708 102.802 58.8098 102.166 58.0989 101.713C57.3945 101.263 56.589 101.035 55.6856 101.035C54.7106 101.035 54.0159 101.266 53.5985 101.726C53.1811 102.189 52.9724 102.776 52.9724 103.487C52.9724 104.28 53.1811 104.981 53.5985 105.587C54.0159 106.187 54.554 106.735 55.216 107.231C55.8846 107.72 56.589 108.196 57.3293 108.666C58.0663 109.136 58.7674 109.631 59.4295 110.153C60.0882 110.675 60.6296 111.262 61.047 111.914C61.4709 112.56 61.6862 113.316 61.6862 114.184C61.6862 115.012 61.5199 115.762 61.1905 116.441C60.8578 117.119 60.3067 117.663 59.5338 118.071C58.7577 118.479 57.6847 118.684 56.3118 118.684C55.6498 118.684 55.0921 118.626 54.6421 118.515C54.1888 118.4 53.7974 118.273 53.4681 118.123C53.1354 117.967 52.8321 117.833 52.5549 117.719C52.2842 117.608 52.0005 117.549 51.707 117.549C50.9667 117.549 50.5982 117.833 50.5982 118.397H50.2852ZM52.6984 94.956H52.855L55.9204 97.9824L58.999 94.956H59.1686L56.4814 99.0781H55.3726L52.6984 94.956Z" fill="white"/>
<path d="M63.625 118.397V118.084C64.1892 118.084 64.6066 118.006 64.8773 117.849C65.1545 117.686 65.2947 117.327 65.2947 116.78V102.365C65.2947 101.801 65.1545 101.446 64.8773 101.296C64.6066 101.139 64.1892 101.061 63.625 101.061V100.748H70.4995C71.4029 100.748 72.2866 100.793 73.1476 100.878C74.0085 100.966 74.7912 101.159 75.4956 101.452C76.2 101.739 76.761 102.17 77.1784 102.744C77.5958 103.318 77.8045 104.087 77.8045 105.052C77.8045 106.011 77.6089 106.781 77.2175 107.361C76.8327 107.935 76.324 108.379 75.6913 108.692C75.0554 108.998 74.364 109.201 73.6172 109.305C72.8769 109.409 72.1497 109.462 71.4387 109.462H70.4213C70.7409 109.967 71.0996 110.336 71.4909 110.57C71.8888 110.799 72.2866 110.91 72.678 110.91C73.128 110.91 73.5455 110.76 73.9303 110.453L78.2872 116.78C78.659 117.295 79.047 117.641 79.4482 117.823C79.8558 117.999 80.2863 118.084 80.7396 118.084V118.397H78.3394C77.6773 118.397 77.1001 118.26 76.6044 117.98C76.1152 117.693 75.6848 117.337 75.313 116.91C74.938 116.486 74.5988 116.056 74.2955 115.619L70.056 109.462H67.9558V116.78C67.9558 117.327 68.0863 117.686 68.3472 117.849C68.6146 118.006 69.0418 118.084 69.6255 118.084V118.397H63.625ZM67.9558 109.148H70.5256C71.3768 109.148 72.1497 109.038 72.8476 108.809C73.552 108.584 74.1129 108.18 74.5303 107.596C74.9543 107.006 75.1695 106.168 75.1695 105.079C75.1695 103.774 74.8043 102.779 74.0738 102.091C73.3498 101.406 72.3193 101.061 70.9822 101.061H67.9558V109.148Z" fill="white"/>
<path d="M81.9414 101.061V100.748H88.0463V101.061C87.4626 101.061 87.0288 101.139 86.7418 101.296C86.4614 101.446 86.3244 101.85 86.3244 102.509V112.097C86.3244 114.115 86.7353 115.628 87.5636 116.636C88.3985 117.637 89.5399 118.136 90.9944 118.136C92.0282 118.136 92.938 117.967 93.7207 117.628C94.5034 117.288 95.1198 116.698 95.5731 115.853C96.0231 115.002 96.2514 113.805 96.2514 112.266V102.274C96.2155 101.746 96.0557 101.41 95.7687 101.27C95.4883 101.133 95.0774 101.061 94.5295 101.061V100.748H98.2863V101.061C97.833 101.061 97.4319 101.139 97.0862 101.296C96.7373 101.446 96.5645 101.85 96.5645 102.509V112.266C96.5645 112.736 96.5286 113.254 96.4601 113.818C96.3981 114.386 96.2546 114.953 96.0296 115.527C95.8013 116.101 95.4687 116.63 95.0252 117.106C94.5817 117.575 93.9849 117.96 93.2381 118.254C92.488 118.541 91.5488 118.684 90.4204 118.684C88.7051 118.684 87.3582 118.397 86.3766 117.823C85.3917 117.249 84.6938 116.467 84.2764 115.475C83.8655 114.484 83.6633 113.359 83.6633 112.097V102.509C83.6633 101.85 83.5198 101.446 83.2328 101.296C82.9524 101.139 82.5219 101.061 81.9414 101.061Z" fill="white"/>
<path d="M99.6152 101.061V100.748H106.516C107.419 100.748 108.303 100.793 109.164 100.878C110.025 100.966 110.801 101.159 111.499 101.452C112.194 101.739 112.751 102.179 113.169 102.77C113.586 103.363 113.795 104.149 113.795 105.131C113.795 106.377 113.433 107.371 112.712 108.118C111.998 108.868 111.068 109.25 109.921 109.266V109.37C111.46 109.37 112.673 109.722 113.56 110.427C114.447 111.125 114.891 112.077 114.891 113.284C114.891 113.825 114.802 114.389 114.63 114.979C114.463 115.563 114.134 116.121 113.638 116.649C113.149 117.171 112.441 117.595 111.512 117.914C110.579 118.237 109.36 118.397 107.846 118.397H99.6152V118.084C100.189 118.084 100.61 118.012 100.881 117.862C101.148 117.716 101.285 117.367 101.285 116.819V102.274C101.265 101.762 101.122 101.433 100.854 101.283C100.594 101.136 100.179 101.061 99.6152 101.061ZM106.972 109.462H103.972V116.819C103.972 117.194 104.031 117.477 104.155 117.667C104.285 117.849 104.536 117.973 104.911 118.032C105.283 118.084 105.831 118.11 106.555 118.11C108.381 118.11 109.741 117.719 110.638 116.936C111.532 116.153 111.982 114.924 111.982 113.245C111.982 112.227 111.76 111.444 111.316 110.896C110.873 110.349 110.273 109.977 109.516 109.775C108.76 109.566 107.912 109.462 106.972 109.462ZM103.972 102.274V109.175H106.529C107.39 109.175 108.163 109.07 108.851 108.862C109.545 108.653 110.097 108.258 110.508 107.674C110.925 107.094 111.134 106.246 111.134 105.131C111.134 103.81 110.794 102.802 110.116 102.104C109.438 101.41 108.398 101.061 106.999 101.061C106.17 101.061 105.541 101.087 105.107 101.139C104.67 101.185 104.37 101.292 104.207 101.465C104.05 101.632 103.972 101.902 103.972 102.274Z" fill="white"/>
<path d="M119.991 118.397H116.221V118.084C116.619 118.084 117.023 117.941 117.434 117.654C117.851 117.36 118.145 116.995 118.321 116.558L123.604 103.918L122.926 102.274C122.733 101.788 122.433 101.465 122.026 101.309C121.624 101.146 121.181 101.061 120.695 101.061V100.748H124.935L131.3 115.958C131.639 116.74 132.011 117.295 132.422 117.614C132.84 117.928 133.342 118.084 133.935 118.084V118.397H127.139V118.084H127.791C128.417 118.084 128.773 117.882 128.861 117.471C128.956 117.054 128.881 116.555 128.639 115.971L127.256 112.605H120.291L118.686 116.467C118.477 116.982 118.517 117.38 118.804 117.667C119.097 117.947 119.495 118.084 119.991 118.084V118.397ZM123.774 104.283L120.434 112.292H127.113L123.774 104.283Z" fill="white"/>
<path d="M135.264 118.397V118.084C135.828 118.084 136.245 118.006 136.516 117.849C136.793 117.686 136.933 117.327 136.933 116.779V102.365C136.933 101.801 136.793 101.445 136.516 101.295C136.245 101.139 135.828 101.061 135.264 101.061V100.748H142.138C143.042 100.748 143.925 100.793 144.786 100.878C145.654 100.966 146.436 101.158 147.134 101.452C147.839 101.739 148.4 102.169 148.817 102.743C149.241 103.317 149.456 104.087 149.456 105.052C149.456 106.011 149.261 106.781 148.869 107.361C148.484 107.935 147.972 108.379 147.33 108.692C146.694 108.998 146.003 109.201 145.256 109.305C144.516 109.409 143.795 109.461 143.09 109.461H142.073C142.393 109.967 142.751 110.335 143.143 110.57C143.54 110.798 143.932 110.909 144.317 110.909C144.767 110.909 145.191 110.759 145.582 110.453L149.939 116.779C150.311 117.295 150.699 117.64 151.1 117.823C151.498 117.999 151.925 118.084 152.378 118.084V118.397H149.991C149.329 118.397 148.752 118.26 148.256 117.98C147.76 117.693 147.323 117.337 146.952 116.91C146.586 116.486 146.251 116.055 145.947 115.618L141.708 109.461H139.594V116.779C139.594 117.327 139.728 117.686 139.999 117.849C140.266 118.006 140.694 118.084 141.277 118.084V118.397H135.264ZM139.594 109.148H142.164C143.025 109.148 143.801 109.037 144.499 108.809C145.204 108.584 145.765 108.18 146.182 107.596C146.606 107.006 146.821 106.168 146.821 105.078C146.821 103.774 146.456 102.779 145.725 102.091C145.001 101.406 143.968 101.061 142.621 101.061H139.594V109.148ZM142.073 99.1692L139.412 95.0601H139.555L142.621 98.0865L145.699 95.0601H145.869L143.182 99.1692H142.073Z" fill="white"/>
<path d="M8.39648 134.934V133.982H11.4489V134.934H8.39648Z" fill="white"/>
<path d="M25.1784 137.87H24.1218V129.717H21.252V128.777H28.0613V129.717H25.1784V137.87Z" fill="white"/>
<path d="M33.414 134.087V137.87H32.3574V128.777H34.8489C35.961 128.777 36.7828 128.993 37.3144 129.417C37.8525 129.844 38.1232 130.486 38.1232 131.347C38.1232 132.547 37.5101 133.363 36.2839 133.787L38.7623 137.87H37.5101L35.3055 134.087H33.414ZM33.414 133.186H34.862C35.6088 133.186 36.1567 133.04 36.5056 132.743C36.8513 132.449 37.0274 131.999 37.0274 131.399C37.0274 130.799 36.848 130.369 36.4926 130.108C36.1338 129.841 35.5664 129.704 34.7837 129.704H33.414V133.186Z" fill="white"/>
<path d="M50.0192 128.777V134.661C50.0192 135.698 49.7061 136.513 49.08 137.113C48.4538 137.706 47.5929 138 46.4971 138C45.4014 138 44.5535 137.7 43.9534 137.1C43.3599 136.5 43.0664 135.678 43.0664 134.634V128.777H44.123V134.713C44.123 135.469 44.3252 136.053 44.7361 136.461C45.1535 136.872 45.7601 137.074 46.5624 137.074C47.3353 137.074 47.9255 136.872 48.3364 136.461C48.7539 136.053 48.9626 135.466 48.9626 134.7V128.777H50.0192Z" fill="white"/>
<path d="M62.2541 137.87H61.1975V133.591H56.4101V137.87H55.3535V128.777H56.4101V132.652H61.1975V128.777H62.2541V137.87Z" fill="white"/>
<path d="M67.6738 137.87V128.777H68.7304V136.917H72.7352V137.87H67.6738Z" fill="white"/>
<path d="M82.9229 137.87L81.788 134.974H78.1485L77.0267 137.87H75.957L79.5443 128.738H80.4444L84.0186 137.87H82.9229ZM81.4619 134.021L80.4053 131.217C80.265 130.861 80.1215 130.421 79.9748 129.899C79.8867 130.3 79.7563 130.741 79.5834 131.217L78.5138 134.021H81.4619ZM79.2182 127.903C79.4171 127.643 79.6291 127.329 79.8574 126.964C80.0922 126.599 80.2748 126.283 80.4053 126.012H81.6706V126.142C81.488 126.413 81.214 126.749 80.8488 127.147C80.49 127.538 80.177 127.845 79.9096 128.06H79.2182V127.903Z" fill="white"/>
<path d="M89.25 134.087V137.87H88.1934V128.777H90.6849C91.7969 128.777 92.6188 128.993 93.1503 129.417C93.6884 129.844 93.9591 130.486 93.9591 131.347C93.9591 132.547 93.346 133.363 92.1198 133.787L94.5983 137.87H93.346L91.1414 134.087H89.25ZM89.25 133.187H90.6979C91.4447 133.187 91.9926 133.04 92.3416 132.743C92.6872 132.449 92.8633 131.999 92.8633 131.399C92.8633 130.799 92.684 130.369 92.3285 130.108C91.9698 129.841 91.4023 129.704 90.6197 129.704H89.25V133.187ZM88.7804 126.012H89.4978C89.9674 126.325 90.4175 126.716 90.8545 127.186C91.3926 126.648 91.8491 126.257 92.2242 126.012H92.9677V126.168L92.5503 126.599C91.9567 127.209 91.5654 127.695 91.3763 128.06H90.3457C90.2479 127.887 90.0914 127.669 89.8761 127.408C89.6674 127.147 89.3022 126.736 88.7804 126.168V126.012Z" fill="white"/>
<path d="M104.116 135.456C104.116 136.258 103.822 136.885 103.242 137.335C102.668 137.778 101.879 138 100.881 138C99.8014 138 98.9763 137.863 98.4023 137.582V136.552C98.7676 136.718 99.1655 136.849 99.6025 136.943C100.046 137.031 100.483 137.074 100.92 137.074C101.624 137.074 102.153 136.94 102.511 136.669C102.867 136.402 103.046 136.027 103.046 135.548C103.046 135.234 102.981 134.98 102.851 134.778C102.727 134.579 102.518 134.396 102.224 134.23C101.928 134.057 101.474 133.862 100.868 133.643C100.023 133.34 99.4198 132.984 99.0546 132.573C98.6958 132.156 98.5197 131.615 98.5197 130.943C98.5197 130.248 98.7806 129.69 99.3024 129.273C99.8307 128.856 100.529 128.647 101.39 128.647C102.293 128.647 103.125 128.813 103.881 129.143L103.555 130.069C102.805 129.756 102.074 129.599 101.363 129.599C100.806 129.599 100.372 129.723 100.059 129.964C99.7459 130.199 99.5894 130.532 99.5894 130.956C99.5894 131.269 99.6448 131.53 99.759 131.738C99.8699 131.941 100.066 132.123 100.346 132.286C100.623 132.453 101.044 132.635 101.611 132.834C102.567 133.183 103.222 133.552 103.581 133.943C103.937 134.328 104.116 134.83 104.116 135.456Z" fill="white"/>
<path d="M111.698 137.87H110.641V129.717H107.771V128.777H114.581V129.717H111.698V137.87Z" fill="white"/>
<path d="M124.067 128.777H125.202L121.928 137.87H120.884L117.623 128.777H118.745L120.832 134.661C121.073 135.339 121.266 135.998 121.406 136.63C121.553 135.962 121.748 135.293 121.993 134.621L124.067 128.777Z" fill="white"/>
<path d="M129.382 137.87V128.777H130.438V137.87H129.382ZM129.238 127.903C129.437 127.643 129.649 127.329 129.877 126.964C130.112 126.599 130.295 126.283 130.425 126.012H131.691V126.142C131.508 126.413 131.234 126.749 130.869 127.147C130.51 127.538 130.197 127.845 129.93 128.06H129.238V127.903Z" fill="white"/>
<path d="M141.367 134.934V133.982H144.42V134.934H141.367Z" fill="white"/>
</svg>
