<svg width="44" height="50" viewBox="0 0 44 50" fill="none" xmlns="http://www.w3.org/2000/svg">
<g clip-path="url(#clip0_2307_26385)">
<path d="M1.30176 48.3254C1.86428 49.4831 3.26239 49.9894 4.40332 49.5139L4.62695 49.4055C4.67582 49.3782 4.89357 49.2302 5.27051 48.9651C5.63864 48.7062 6.14098 48.3489 6.74121 47.9182C7.34146 47.4875 8.03918 46.9839 8.79883 46.4338L11.2266 44.6692C12.9166 43.4383 14.468 42.3224 15.6045 41.5159C16.1726 41.1127 16.6382 40.7865 16.9658 40.5618C17.1291 40.4498 17.2596 40.361 17.3525 40.301C17.3984 40.2714 17.4391 40.2459 17.4707 40.2278C17.4856 40.2192 17.505 40.2094 17.5244 40.2004C17.5334 40.1963 17.5508 40.1883 17.5723 40.1819C17.583 40.1787 17.602 40.174 17.626 40.1711C17.6452 40.1689 17.6967 40.1635 17.7578 40.1838C17.7783 40.1907 17.7936 40.1988 17.7988 40.2014C17.806 40.205 17.8126 40.208 17.8164 40.2102C17.8241 40.2146 17.8307 40.2196 17.8359 40.2229C17.8468 40.2298 17.8599 40.2375 17.873 40.2463C17.9 40.2645 17.9373 40.29 17.9824 40.3215C18.0731 40.3849 18.2022 40.4775 18.3652 40.594C18.6917 40.8273 19.1564 41.1621 19.7246 41.5735C20.8613 42.3964 22.4142 43.5267 24.1084 44.7668C25.8074 46.002 27.3969 47.1519 28.5889 48.0071C29.1848 48.4346 29.6811 48.7884 30.042 49.0422C30.2225 49.1692 30.3684 49.271 30.4756 49.344C30.5291 49.3804 30.5723 49.409 30.6045 49.4299L30.6533 49.4602L30.6543 49.4612C30.8839 49.5817 31.2528 49.656 31.6582 49.6594C32.0594 49.6628 32.4499 49.5963 32.7197 49.4749L32.8984 49.3801C33.2529 49.1708 33.5857 48.8502 33.8018 48.511L33.8994 48.3401C33.9561 48.2264 34.0018 48.1039 34.0332 47.427C34.0489 47.0884 34.0614 46.623 34.0732 45.9661L34.1113 43.3557V43.3547C34.1308 42.0522 34.1477 39.6411 34.1611 36.8049L34.1895 27.7043L34.1992 16.7961V16.4973H37.6729C39.1112 16.4973 39.9055 16.4922 40.3965 16.467C40.8754 16.4425 41.042 16.4001 41.2285 16.3313V16.3303C41.8223 16.1067 42.2114 15.7915 42.5195 15.2639L42.6475 15.0247V15.0237L42.9395 14.4309V9.61938C42.9395 6.90926 42.941 5.59928 42.8623 4.79907C42.8238 4.40714 42.7669 4.14985 42.6846 3.91724C42.6423 3.79782 42.5923 3.6827 42.5322 3.55591L42.3174 3.12427L42.3164 3.12231C42.1322 2.75397 41.7604 2.28475 41.3213 1.85278C40.937 1.47477 40.524 1.14793 40.1768 0.951416L40.0322 0.875244L40.0303 0.874268C39.6903 0.70683 39.544 0.611674 39.2139 0.5354C38.872 0.456436 38.3377 0.401237 37.2676 0.366455C36.2003 0.331773 34.6229 0.318134 32.2109 0.313721L22.1455 0.31958L15.9082 0.324463C13.9819 0.327514 12.2378 0.3313 10.7646 0.336182C9.29145 0.341064 8.0892 0.347293 7.24707 0.352783C6.82596 0.355529 6.49515 0.357934 6.26562 0.360596C6.15079 0.361927 6.06191 0.363242 6 0.364502C5.969 0.365133 5.94569 0.365901 5.92969 0.366455C5.92795 0.366515 5.92623 0.3664 5.9248 0.366455C5.68692 0.407329 5.32532 0.511184 4.9541 0.644775C4.67213 0.746258 4.39783 0.859296 4.18066 0.966064L3.98438 1.07056L3.98145 1.07251L3.8252 1.16528C3.4567 1.39912 3.05509 1.74541 2.68457 2.14282C2.31428 2.54 1.98706 2.97555 1.76172 3.38013L1.67188 3.55103C1.47143 3.95714 1.36233 4.09227 1.27246 4.48169C1.17981 4.88346 1.11686 5.539 1.07715 6.91138C1.03756 8.27988 1.02138 10.3366 1.01758 13.5217L1.0293 26.9036L1.05762 47.8313L1.30078 48.3245L1.30176 48.3254ZM34.1992 9.66821C34.1992 7.71831 34.2009 6.65339 34.2256 6.01978C34.2443 5.53887 34.2769 5.28804 34.3359 5.07739L34.4043 4.87329V4.87231C34.6924 4.12535 35.2475 3.48214 35.9287 3.1145V3.11548C36.3764 2.86874 36.8001 2.71313 37.2334 2.65845C37.6682 2.60358 38.0957 2.65289 38.5479 2.78931L38.5488 2.78833C39.1714 2.97317 39.7662 3.44588 40.1562 4.03442L40.3105 4.29321L40.5742 4.79126L40.6084 4.85571L40.6094 4.92993L40.6387 9.39282L40.668 13.8655L40.6699 14.1672H34.1992V9.66821ZM31.4326 47.1614C31.4182 47.157 31.4065 47.1533 31.4004 47.1506C31.388 47.1453 31.3784 47.1393 31.374 47.137C31.3647 47.1319 31.3563 47.1272 31.3516 47.1243C31.3409 47.1177 31.3284 47.1098 31.3164 47.1018C31.2917 47.0852 31.2579 47.061 31.2158 47.0315C31.1311 46.9722 31.0087 46.8856 30.8535 46.7747C30.5429 46.5526 30.0972 46.2318 29.5508 45.8362L25.3174 42.7522C23.6724 41.5514 22.1233 40.4255 20.9521 39.5813C20.3611 39.1553 19.871 38.8049 19.5146 38.552L18.877 38.1096L18.8701 38.1057C18.6477 37.9655 18.5525 37.9152 18.4199 37.887C18.2682 37.8547 18.0588 37.8489 17.6045 37.8489C17.1552 37.8489 16.9453 37.8555 16.792 37.8879C16.6912 37.9093 16.6107 37.9426 16.4834 38.0168L16.3389 38.1057L16.3311 38.1096L15.6934 38.552C15.337 38.8049 14.8476 39.1555 14.2568 39.5813C13.6711 40.0035 12.9906 40.4964 12.251 41.0334L9.89062 42.7522C8.24497 43.9535 6.74326 45.0449 5.65039 45.8362C5.10399 46.2318 4.65878 46.5528 4.34961 46.7747C4.1955 46.8853 4.07453 46.9716 3.99121 47.0305C3.94967 47.0599 3.91601 47.0837 3.89258 47.0999C3.8813 47.1076 3.87021 47.1146 3.86133 47.1204C3.85727 47.123 3.85102 47.1278 3.84375 47.1321C3.84057 47.134 3.83223 47.1379 3.82227 47.1428C3.81756 47.1452 3.80791 47.1506 3.79492 47.1555C3.79355 47.156 3.78138 47.1606 3.7627 47.1653L3.68848 47.175C3.60601 47.1635 3.48909 47.0995 3.4541 47.0627C3.43777 47.0404 3.41594 47.0021 3.40918 46.9866C3.39862 46.9602 3.39469 46.9376 3.39355 46.9319C3.39036 46.9159 3.38913 46.9023 3.38867 46.8977C3.38746 46.8855 3.38624 46.8727 3.38574 46.8625C3.38468 46.8407 3.38366 46.8107 3.38281 46.7747C3.38109 46.7016 3.37946 46.5942 3.37793 46.4553C3.37487 46.177 3.37256 45.7669 3.37012 45.2405C3.36523 44.1874 3.36182 42.6649 3.35938 40.7864V26.1418L3.38867 5.41919V5.34985L3.41895 5.28735L3.74121 4.63306V4.63403C4.1878 3.72101 4.94651 3.06008 5.87109 2.77759L6.05859 2.72583H6.06152C6.09565 2.71787 6.13453 2.71565 6.14355 2.71509C6.16422 2.7138 6.19004 2.71226 6.21973 2.71118C6.27985 2.709 6.36328 2.70738 6.4668 2.70532C6.67414 2.7012 6.96853 2.6965 7.33691 2.69263C8.0747 2.68487 9.11252 2.6777 10.3486 2.67114C12.821 2.65802 16.0901 2.64795 19.3496 2.64185C22.6089 2.63574 25.8592 2.63397 28.2949 2.63794C29.5127 2.63992 30.5279 2.6436 31.2383 2.64868C31.5931 2.65122 31.8729 2.65406 32.0645 2.65747C32.1599 2.65917 32.2357 2.66129 32.2881 2.66333C32.3132 2.66431 32.3367 2.66474 32.3555 2.66626C32.3636 2.66692 32.3787 2.66853 32.3945 2.67114C32.4003 2.67209 32.4205 2.67586 32.4443 2.68384C32.4586 2.68904 32.4956 2.70552 32.5176 2.71899C32.5575 2.75106 32.6352 2.87462 32.6504 2.96899C32.6503 3.01368 32.6396 3.05075 32.6387 3.05396C32.6356 3.06538 32.6315 3.07575 32.6289 3.08325C32.6236 3.09888 32.6172 3.11675 32.6104 3.13403C32.5964 3.16935 32.5774 3.21551 32.5547 3.26782L32.376 3.65552C32.2207 3.99673 32.1413 4.09373 32.0732 4.44165C32.0015 4.80838 31.9531 5.42871 31.9219 6.74634C31.8597 9.37227 31.8691 14.6795 31.8691 26.0452C31.8691 31.7727 31.864 36.9802 31.8555 40.7561C31.8512 42.6439 31.8458 44.1743 31.8398 45.2327C31.8369 45.7618 31.8344 46.1737 31.8311 46.4534C31.8294 46.593 31.827 46.7013 31.8252 46.7747C31.8243 46.8108 31.8233 46.8407 31.8223 46.8625C31.8218 46.8727 31.8215 46.8855 31.8203 46.8977C31.8199 46.9023 31.8186 46.916 31.8154 46.9319C31.8143 46.9375 31.8093 46.9594 31.7988 46.9856C31.7923 47.0007 31.7712 47.0392 31.7549 47.0618C31.7288 47.0893 31.6563 47.1327 31.5869 47.1575L31.5205 47.175C31.4763 47.175 31.4426 47.1644 31.4326 47.1614Z" fill="#3D3D3D" stroke="white" stroke-width="0.6"/>
<path d="M17.5957 32.415C17.827 32.415 17.9485 32.409 18.0859 32.3535C18.2294 32.2956 18.4158 32.1714 18.7236 31.873C19.188 31.423 19.8717 30.636 21.0381 29.252L22.375 27.6592L22.376 27.6582C23.407 26.4317 24.3922 25.2532 25.1514 24.3418L26.5684 22.627C27.3324 21.6546 27.7778 20.2873 27.7324 19.1094L27.7168 18.877V18.875C27.4383 15.8496 24.8416 13.6115 21.873 13.8057H21.8721C20.6124 13.8936 19.2043 14.4606 18.3154 15.2188L18.1445 15.373L18.1426 15.375L17.8301 15.668L17.6367 15.8496L17.4336 15.6797L16.918 15.2529C15.8117 14.3574 14.7419 13.9267 13.3789 13.8301L13.1016 13.8154H13.1006C12.5698 13.7939 12.1973 13.8108 11.9004 13.8574L11.625 13.9141C8.1691 14.8843 6.46236 18.6842 8.06641 21.7451L8.06543 21.7461C8.16101 21.9232 8.40769 22.2774 8.77246 22.7568C8.95328 22.9945 9.16104 23.2583 9.3877 23.541L10.1201 24.4365C13.2807 28.2126 14.8773 30.1211 15.7393 31.1133C16.3915 31.8641 16.6066 32.0687 16.7393 32.1562L16.8584 32.2207L16.8682 32.2266C17.0797 32.3405 17.3832 32.415 17.5957 32.415ZM17.6436 29.4795C17.5731 29.484 17.521 29.4625 17.5098 29.458C17.481 29.4465 17.4595 29.4325 17.4492 29.4258C17.4272 29.4112 17.408 29.3959 17.3965 29.3857C17.3712 29.3636 17.3422 29.3351 17.3125 29.3047C17.2516 29.2423 17.1692 29.1521 17.0693 29.041C16.8687 28.8177 16.5896 28.4972 16.2588 28.1123C15.5965 27.3418 14.7212 26.3058 13.8418 25.2529C12.9625 24.2002 12.0775 23.1291 11.3936 22.2881C11.0517 21.8677 10.7595 21.5034 10.543 21.2275C10.4349 21.0898 10.3446 20.9726 10.2764 20.8809C10.2133 20.7961 10.1569 20.7184 10.127 20.665C10.0122 20.4617 9.93222 20.2893 9.88672 20.0693C9.84326 19.8592 9.83496 19.6192 9.83496 19.2871C9.83496 18.9565 9.84678 18.7157 9.89258 18.498C9.92784 18.3305 9.98077 18.185 10.0527 18.0303L10.1309 17.8711L10.1328 17.8682C10.309 17.5325 10.5869 17.1961 10.8896 16.918C11.1905 16.6417 11.5381 16.4031 11.8652 16.2822V16.2812C12.2317 16.1439 12.6895 16.1046 13.1416 16.1396C13.5965 16.175 14.071 16.2879 14.4785 16.4756L14.4775 16.4766C15.1906 16.7963 15.8525 17.4225 16.3174 18.1748L16.5049 18.5049L16.5078 18.5107C16.6289 18.7578 16.7063 18.886 16.7812 18.9697C16.8308 19.0251 16.8855 19.0678 16.9717 19.1123L17.0693 19.1582L17.0771 19.1611C17.3272 19.2769 17.4774 19.3164 17.6074 19.3164C17.7363 19.3164 17.8815 19.2778 18.1201 19.1631V19.1641C18.2554 19.0984 18.3373 19.0383 18.4131 18.9531C18.4543 18.9067 18.4966 18.8497 18.5439 18.7744L18.7061 18.4844L18.707 18.4834C18.9395 18.0432 19.1345 17.7231 19.3525 17.4619C19.5739 17.1968 19.8106 17.0026 20.1143 16.8018V16.8008C21.1517 16.1092 22.478 15.9285 23.5215 16.3633L23.5205 16.3643C23.8358 16.4931 24.1642 16.7449 24.4404 17.0264C24.6839 17.2744 24.9064 17.5647 25.0557 17.8506L25.1152 17.9727L25.1162 17.9746C25.2873 18.3611 25.3707 18.8253 25.376 19.2715C25.3805 19.661 25.3253 20.0571 25.2012 20.3936L25.1445 20.5342L25.1406 20.542L25.082 20.6377C25.0575 20.6737 25.0291 20.7123 25.002 20.749C24.9392 20.8339 24.8544 20.9454 24.751 21.0781C24.5436 21.3441 24.2586 21.7024 23.9219 22.1201C23.2481 22.956 22.3648 24.0348 21.4824 25.1035C20.6001 26.172 19.717 27.2315 19.042 28.0283C18.7048 28.4264 18.4186 28.7602 18.21 28.9971C18.1059 29.1152 18.0196 29.2118 17.9551 29.2803C17.9233 29.314 17.8938 29.3438 17.8691 29.3672C17.8571 29.3786 17.8424 29.392 17.8271 29.4043C17.8249 29.4061 17.8132 29.4159 17.7949 29.4277L17.7236 29.4629L17.7197 29.4639L17.6436 29.4795Z" fill="#3D3D3D" stroke="white" stroke-width="0.6"/>
</g>
<defs>
<clipPath id="clip0_2307_26385">
<rect width="44" height="50" fill="white"/>
</clipPath>
</defs>
</svg>
