<svg width="50" height="50" viewBox="0 0 50 50" fill="none" xmlns="http://www.w3.org/2000/svg">
<g clip-path="url(#clip0_2307_26433)">
<path fill-rule="evenodd" clip-rule="evenodd" d="M21.8375 21.9108C21.5117 22.2367 21.5117 22.7633 21.8375 23.0892L26.8375 28.0892C27 28.2517 27.2133 28.3333 27.4267 28.3333C27.64 28.3333 27.8533 28.2517 28.0158 28.0892C28.3417 27.7633 28.3417 27.2367 28.0158 26.9108L23.0158 21.9108C22.69 21.585 22.1633 21.585 21.8375 21.9108ZM19.6825 25.2442C19.3567 24.9183 18.83 24.9183 18.5042 25.2442C18.1783 25.57 18.1783 26.0967 18.5042 26.4225L23.5042 31.4225C23.6667 31.585 23.88 31.6667 24.0933 31.6667C24.3067 31.6667 24.52 31.585 24.6825 31.4225C25.0083 31.0967 25.0083 30.57 24.6825 30.2442L19.6825 25.2442ZM16.3492 28.5775C16.0233 28.2517 15.4967 28.2517 15.1708 28.5775C14.845 28.9033 14.845 29.43 15.1708 29.7558L20.1708 34.7558C20.3333 34.9183 20.5467 35 20.76 35C20.9733 35 21.1867 34.9183 21.3492 34.7558C21.675 34.43 21.675 33.9033 21.3492 33.5775L16.3492 28.5775ZM32.0817 26.6667L23.26 17.845L11.105 30L19.9267 38.8217L32.0817 26.6667ZM23.8492 16.0775L33.8492 26.0775C34.175 26.4033 34.175 26.93 33.8492 27.2558L20.5158 40.5892C20.3533 40.7517 20.14 40.8333 19.9267 40.8333C19.7133 40.8333 19.5 40.7517 19.3375 40.5892L9.3375 30.5892C9.01167 30.2633 9.01167 29.7367 9.3375 29.4108L22.6708 16.0775C22.9967 15.7517 23.5233 15.7517 23.8492 16.0775ZM43.2392 30.4792C42.8408 30.245 42.3308 30.3792 42.0983 30.7767L32.5467 47.0683C31.8567 48.2625 30.3242 48.6733 29.1675 48.0067L27.3067 46.8008C26.9217 46.55 26.405 46.6608 26.155 47.0467C25.9042 47.4333 26.0142 47.9492 26.4008 48.1992L28.2975 49.4283C28.9517 49.8058 29.6675 49.985 30.3742 49.985C31.815 49.985 33.2175 49.2392 33.9867 47.9067L43.5358 31.6192C43.7683 31.2225 43.6358 30.7125 43.2392 30.4792ZM49.9267 4.16667V17.5C49.9267 20.0783 49.1067 21.9992 47.1825 23.9225L22.4342 48.7058C21.6467 49.4933 20.6 49.9258 19.4867 49.9258C18.3733 49.9258 17.3275 49.4933 16.5417 48.7058L1.22083 33.3858C0.433333 32.5983 0 31.5517 0 30.4383C0 29.325 0.433333 28.2792 1.22083 27.4925L22.8658 5.87667C17.2058 4.59 13.6933 4.50333 12.665 4.80417C13.0992 5.24833 14.4517 6.19167 17.7158 7.47833C18.1442 7.6475 18.3542 8.13083 18.1858 8.55917C18.0167 8.9875 17.5325 9.195 17.105 9.02917C10.3483 6.36583 10.7433 4.88917 10.8925 4.33333C11.2017 3.175 12.8525 2.78917 16.2342 3.085C18.9883 3.32583 22.5433 4.005 26.2442 4.99583C29.945 5.9875 33.3617 7.17667 35.8667 8.34583C38.9458 9.78167 40.18 10.9392 39.8692 12.0983C39.5692 13.2167 38.01 13.3533 37.4975 13.3983C37.4733 13.4008 37.4483 13.4017 37.4242 13.4017C36.9967 13.4017 36.6333 13.0742 36.595 12.6408C36.5542 12.1825 36.8933 11.7783 37.3525 11.7383C37.7075 11.7075 37.9433 11.6592 38.0958 11.6158C37.7392 11.2433 36.8367 10.6625 35.3933 9.97083C35.0908 10.4808 34.9267 11.0667 34.9267 11.6667C34.9267 13.505 36.4217 15 38.26 15C40.0983 15 41.5933 13.505 41.5933 11.6667C41.5933 9.82833 40.0983 8.33333 38.26 8.33333C37.7992 8.33333 37.4267 7.96083 37.4267 7.5C37.4267 7.03917 37.7992 6.66667 38.26 6.66667C41.0175 6.66667 43.26 8.90917 43.26 11.6667C43.26 14.4242 41.0175 16.6667 38.26 16.6667C35.5025 16.6667 33.26 14.4242 33.26 11.6667C33.26 10.8308 33.48 10.0167 33.8725 9.29C31.8783 8.4525 29.2033 7.515 25.8133 6.60583C25.4558 6.51 25.1117 6.4225 24.7675 6.335L2.39917 28.6717C1.92667 29.1433 1.66667 29.7717 1.66667 30.4383C1.66667 31.1067 1.92667 31.7342 2.39917 32.2067L17.72 47.5275C18.6642 48.4717 20.3108 48.4717 21.255 47.5275L46.0033 22.7442C47.6275 21.1208 48.26 19.65 48.26 17.5V4.16667C48.26 2.78833 47.1383 1.66667 45.76 1.66667H32.4267C30.2767 1.66667 28.8058 2.29917 27.1825 3.9225C26.8567 4.24833 26.33 4.24833 26.0042 3.9225C25.6783 3.59667 25.6783 3.07 26.0042 2.74417C27.9275 0.82 29.8483 0 32.4267 0H45.76C48.0575 0 49.9267 1.86917 49.9267 4.16667Z" fill="#3D3D3D"/>
</g>
<defs>
<clipPath id="clip0_2307_26433">
<rect width="50" height="50" fill="white"/>
</clipPath>
</defs>
</svg>
