<svg width="48" height="50" viewBox="0 0 48 50" fill="none" xmlns="http://www.w3.org/2000/svg">
<path d="M15.8024 24.864L14.6956 32.8442C14.6549 33.1384 14.6949 33.4381 14.8112 33.7114C14.9276 33.9847 15.116 34.2212 15.3563 34.3958C15.5966 34.5703 15.8798 34.6763 16.1757 34.7025C16.4715 34.7286 16.7689 34.6739 17.0361 34.5442L24.2602 31.0261L31.508 34.545C31.7753 34.6745 32.0727 34.7289 32.3685 34.7025C32.6644 34.6761 32.9475 34.5699 33.1877 34.3952C33.4279 34.2205 33.6161 33.9839 33.7323 33.7106C33.8486 33.4373 33.8884 33.1375 33.8476 32.8434L32.7344 24.886L38.3195 19.0812C38.5254 18.8671 38.6693 18.6012 38.7359 18.3117C38.8025 18.0222 38.7892 17.7201 38.6974 17.4376C38.6057 17.1551 38.439 16.9028 38.215 16.7077C37.9911 16.5126 37.7184 16.3819 37.426 16.3297L29.5133 14.9299L25.7178 7.82386C25.578 7.5618 25.3695 7.34266 25.1148 7.18987C24.8601 7.03707 24.5687 6.95636 24.2716 6.95636C23.9746 6.95636 23.6831 7.03707 23.4284 7.18987C23.1737 7.34266 22.9653 7.5618 22.8255 7.82386L19.0486 14.9161L11.1173 16.3297C10.8249 16.3819 10.5522 16.5126 10.3282 16.7077C10.1043 16.9028 9.93754 17.1551 9.84581 17.4376C9.75407 17.7201 9.74078 18.0222 9.80735 18.3117C9.87392 18.6012 10.0179 18.8671 10.2238 19.0812L15.8024 24.864ZM19.3432 16.5568C19.5873 16.5134 19.8182 16.415 20.0186 16.269C20.219 16.1231 20.3835 15.9334 20.4996 15.7144L24.2472 8.60753L24.9829 8.21586L24.248 8.60811L28.0436 15.7142C28.16 15.9334 28.3247 16.1232 28.5255 16.2692C28.7262 16.4152 28.9576 16.5134 29.202 16.5565L37.1186 17.9253L31.5343 23.7302C31.3613 23.9086 31.2315 24.1241 31.1546 24.3604C31.0777 24.5966 31.0559 24.8473 31.0908 25.0933L32.235 33.0449L24.9881 29.5269C24.7652 29.4176 24.5202 29.3609 24.272 29.3609C24.0237 29.3609 23.7787 29.4176 23.5558 29.5269L16.3464 33.0726L17.454 25.0909C17.4883 24.8453 17.4661 24.5951 17.3893 24.3593C17.3124 24.1235 17.1828 23.9084 17.0104 23.7302L11.4104 17.9701L19.3432 16.5568Z" fill="#3D3D3D"/>
<path d="M44.5219 25.6657C44.9072 24.0837 45.103 22.4615 45.1052 20.8333C45.1052 15.308 42.9103 10.0089 39.0033 6.10194C35.0963 2.19493 29.7972 0 24.2719 0C18.7466 0 13.4475 2.19493 9.54051 6.10194C5.6335 10.0089 3.43857 15.308 3.43857 20.8333C3.44072 22.4615 3.63674 24.0836 4.02249 25.6653C2.41066 27.0903 1.35262 29.0377 1.0343 31.1654C0.715981 33.2931 1.15776 35.4649 2.28199 37.2992C3.40623 39.1334 5.14098 40.5128 7.18139 41.1948C9.2218 41.8768 11.4373 41.8179 13.4386 41.0283V49.1667C13.4386 49.2877 13.465 49.4072 13.5158 49.517C13.5667 49.6268 13.6409 49.7241 13.7332 49.8024C13.8255 49.8806 13.9338 49.9377 14.0504 49.9699C14.1671 50.0021 14.2893 50.0084 14.4087 49.9886L24.2719 48.3447L34.1352 49.9886C34.1804 49.996 34.2261 49.9998 34.2719 50C34.4929 50 34.7049 49.9122 34.8612 49.7559C35.0174 49.5996 35.1052 49.3877 35.1052 49.1667V41.0283C37.1062 41.8161 39.3208 41.8738 41.3601 41.1914C43.3994 40.5089 45.1331 39.13 46.2569 37.2965C47.3808 35.4631 47.8228 33.2923 47.5055 31.1654C47.1883 29.0385 46.1319 27.0913 44.5219 25.6657ZM24.2719 1.66667C29.3535 1.67231 34.2253 3.69347 37.8186 7.28669C41.4118 10.8799 43.4329 15.7517 43.4386 20.8333C43.4401 22.4926 43.2225 24.1448 42.7916 25.7471C41.6465 30.0408 39.0502 33.8057 35.4437 36.4019C34.9317 36.7704 34.4016 37.113 33.8552 37.4284L33.854 37.4293L33.8479 37.4332C33.4418 37.6733 33.013 37.889 32.6479 38.068C30.039 39.3392 27.1749 39.9999 24.2728 40C21.3706 40.0001 18.5065 39.3397 15.8974 38.0688C15.5312 37.889 15.1023 37.6733 14.6891 37.4284C14.1412 37.1122 13.6097 36.7687 13.0963 36.3992C9.49035 33.8018 6.89502 30.036 5.7514 25.7417C5.32074 24.1412 5.10347 22.4908 5.10524 20.8333C5.11088 15.7517 7.13204 10.8799 10.7253 7.28669C14.3185 3.69347 19.1903 1.67231 24.2719 1.66667ZM10.1052 40C8.65519 40.0002 7.23619 39.58 6.02008 38.7902C4.80396 38.0005 3.84288 36.8751 3.25324 35.5504C2.6636 34.2256 2.47068 32.7583 2.69784 31.3262C2.92501 29.8941 3.56251 28.5585 4.53315 27.4813C4.5504 27.5327 4.57399 27.5812 4.59149 27.6328C4.76807 28.1441 4.96007 28.6495 5.1759 29.1438C5.19424 29.186 5.21499 29.2272 5.23365 29.2688C5.45254 29.7614 5.69024 30.2445 5.94674 30.7182C5.9694 30.7598 5.98999 30.803 6.0134 30.8447C6.27482 31.3197 6.55815 31.7827 6.85557 32.236C6.90149 32.3062 6.9464 32.3768 6.99324 32.4463C7.28968 32.8867 7.6026 33.3152 7.93199 33.7319C7.98524 33.7994 8.03924 33.8658 8.0934 33.9327C8.43282 34.3522 8.78615 34.7603 9.15707 35.1527C9.19699 35.195 9.23865 35.2354 9.2789 35.2778C10.0635 36.0941 10.9133 36.8451 11.8199 37.5233C11.8737 37.5637 11.9261 37.6053 11.9803 37.645C12.4118 37.9612 12.8562 38.2598 13.3137 38.5409C13.3564 38.5674 13.3957 38.5988 13.4387 38.625V39.2191C12.4024 39.7325 11.2617 39.9997 10.1052 40ZM15.1052 39.7167V39.536L15.1636 39.5652C17.746 40.8298 20.5651 41.5378 23.4386 41.6435V46.7942L15.1052 48.1828V39.7167ZM33.4386 48.1828L25.1052 46.7942V41.6435C27.9789 41.5378 30.7983 40.8295 33.3808 39.5646C33.3995 39.5557 33.4191 39.5459 33.4386 39.5362V48.1828ZM38.4386 40C37.2821 39.9996 36.1414 39.7322 35.1052 39.2188V38.625C35.1462 38.6 35.1837 38.5702 35.2245 38.5448C35.6813 38.2622 36.1262 37.9632 36.5592 37.648C36.6176 37.6054 36.6737 37.5607 36.7314 37.5174C37.1804 37.1812 37.6185 36.8315 38.0378 36.461L38.0448 36.4546C38.4659 36.0821 38.868 35.6897 39.2572 35.2852C39.3012 35.2396 39.3465 35.1956 39.3901 35.1496C39.7592 34.7589 40.1107 34.3527 40.4484 33.9354C40.5034 33.8675 40.5583 33.8 40.6125 33.7314C40.9423 33.3136 41.2559 32.8842 41.5533 32.443C41.5978 32.3769 41.6405 32.3097 41.6842 32.243C41.9849 31.7847 42.2711 31.318 42.5351 30.8373C42.5529 30.805 42.5688 30.7717 42.5865 30.7392C42.852 30.2496 43.098 29.7496 43.3242 29.2392C43.3367 29.2111 43.3505 29.1838 43.3628 29.1558C43.5837 28.6507 43.7801 28.1347 43.9598 27.6122C43.9751 27.5678 43.9956 27.5257 44.0105 27.4812C44.9811 28.5584 45.6187 29.894 45.8459 31.3261C46.073 32.7582 45.8801 34.2255 45.2905 35.5503C44.7009 36.875 43.7398 38.0004 42.5237 38.7902C41.3076 39.5799 39.8886 40.0002 38.4386 40Z" fill="#3D3D3D"/>
</svg>
