<svg width="50" height="50" viewBox="0 0 50 50" fill="none" xmlns="http://www.w3.org/2000/svg">
<g clip-path="url(#clip0_2307_26453)">
<mask id="path-1-inside-1_2307_26453" fill="white">
<path d="M7.99668 0.146446C7.58653 0.224571 7.13731 0.331993 7.00059 0.380821C6.66856 0.507774 6.40489 0.927696 6.41465 1.30856C6.42442 1.51363 7.06895 2.75387 8.38731 5.07809C9.47129 6.98238 10.3502 8.64254 10.3502 8.76949C10.3502 9.40426 9.39317 10.3515 8.73887 10.3515C8.59239 10.3515 7.06895 9.54098 5.05723 8.38863C2.59629 6.97262 1.53184 6.42574 1.29746 6.41598C0.516215 6.39645 0.135355 7.18746 0.0279333 9.09176C-0.157614 12.2949 1.2584 15.3808 3.80723 17.3046C4.61778 17.9199 6.17051 18.6816 7.17637 18.955C8.28965 19.248 10.2037 19.3164 11.3658 19.0918L12.2447 18.9355L14.9303 21.6211L17.6256 24.3164L10.7213 31.2207C4.23692 37.7148 3.817 38.164 3.68028 38.623C3.60215 38.8867 2.90879 41.1621 2.14707 43.6718C1.15098 46.9336 0.779886 48.3105 0.818949 48.4961C0.926371 48.8964 1.33653 49.2187 1.74668 49.2187C1.942 49.2089 4.31504 48.5351 7.02012 47.7148L11.942 46.2109L18.8365 39.3164L25.7311 32.4218L28.3971 35.0879L31.0729 37.7636L30.9166 38.5058C30.7018 39.5312 30.7213 41.2304 30.9459 42.3535C31.7369 46.1914 34.8522 49.1699 38.7584 49.8437C39.8912 50.039 40.8092 50.039 41.8932 49.8632C42.9381 49.6875 43.2115 49.58 43.4166 49.2578C43.7584 48.7402 43.6803 48.5547 41.6197 44.9121C40.5357 43.0078 39.6471 41.3476 39.6471 41.2207C39.6471 40.5957 40.6139 39.6484 41.2584 39.6484C41.4049 39.6484 42.9381 40.4589 44.94 41.6015C48.5924 43.6816 48.7877 43.7597 49.2955 43.3886C49.8717 42.9687 50.1549 40.664 49.8619 38.8574C49.3248 35.6738 47.401 33.0761 44.5201 31.6992C43.0357 30.9765 42.3229 30.83 40.4283 30.8203C39.3541 30.8105 38.6412 30.8593 38.2897 30.9472L37.7721 31.0839L35.0963 28.4082L32.4205 25.7324L39.3443 18.7988C43.1822 14.9511 46.4537 11.6113 46.6686 11.289C47.1471 10.5957 47.5377 9.42379 47.6158 8.45699C47.8307 5.81051 45.8775 3.21285 43.2018 2.57809C41.7857 2.24606 40.1158 2.52926 38.8463 3.32027C38.524 3.52535 35.692 6.27926 31.317 10.6347L24.315 17.6269L21.6295 14.9414L18.9439 12.2558L19.1002 11.4257C19.3346 10.1757 19.2467 8.14449 18.9049 6.99215C17.899 3.64254 15.3307 1.16207 11.9322 0.283165C10.9264 0.0194931 9.00254 -0.0488663 7.99668 0.146446ZM10.8775 2.09957C12.6354 2.40231 13.9732 3.12496 15.1939 4.42379C16.5318 5.83981 17.1568 7.34371 17.2545 9.32613C17.3814 12.0019 16.1217 14.5117 13.9342 15.957C12.4303 16.9433 10.9361 17.3535 9.22715 17.2461C7.70371 17.1582 6.51231 16.7578 5.31114 15.9375C4.73496 15.5468 3.73887 14.5703 3.34825 14.0039C2.93809 13.4277 2.43028 12.2949 2.24473 11.5722C2.01036 10.6738 1.8834 9.14059 2.02989 9.04293C2.07871 9.01363 3.32871 9.66793 4.79356 10.5078C6.24864 11.3476 7.62559 12.0898 7.84043 12.1679C8.35801 12.3535 9.23692 12.3437 9.81309 12.1484C10.4869 11.914 11.6588 10.7812 12.0201 10.0097C12.3424 9.3359 12.401 8.49606 12.1666 7.85152C12.0885 7.63668 11.3463 6.26949 10.5064 4.79488C9.6666 3.33004 9.01231 2.08981 9.0416 2.04098C9.11973 1.90426 9.93028 1.93356 10.8775 2.09957ZM43.3189 4.6777L43.7877 4.89254L25.9459 22.7343L8.1041 40.5761L7.12754 39.5996L6.15098 38.623L22.8209 21.9433C32.0006 12.7734 39.6666 5.15621 39.8619 5.01949C40.7799 4.38473 42.3033 4.22848 43.3189 4.6777ZM45.3697 6.70895C45.7799 7.67574 45.7115 8.91598 45.2037 9.86324C44.9693 10.3027 41.6686 13.6523 28.1725 27.1484L11.4244 43.8964L10.4479 42.9199L9.47129 41.9433L27.2643 24.1504C37.0592 14.3554 45.1061 6.34762 45.1451 6.34762C45.1842 6.34762 45.2916 6.50387 45.3697 6.70895ZM20.5846 16.6308L22.9479 18.9941L20.9654 20.9765L18.9928 22.9492L16.6002 20.5566C15.2916 19.248 14.2369 18.1543 14.2564 18.125C14.2857 18.1054 14.6373 17.8613 15.0475 17.5976C15.9166 17.0117 17.1764 15.7226 17.7232 14.873C17.9381 14.5312 18.1334 14.2578 18.1627 14.2578C18.192 14.2578 19.276 15.3222 20.5846 16.6308ZM33.4361 29.5019C34.7154 30.791 35.7408 31.8652 35.7213 31.875C35.7018 31.8847 35.3697 32.1093 34.9889 32.3632C34.0807 32.9492 32.8795 34.1699 32.3229 35.0488C32.0787 35.4297 31.8639 35.7422 31.8346 35.7422C31.8053 35.7422 30.7311 34.6875 29.442 33.3984L27.0982 31.0546L29.0514 29.1015C30.1256 28.0273 31.0338 27.1484 31.0631 27.1484C31.0924 27.1484 32.1666 28.2031 33.4361 29.5019ZM42.3326 32.9687C45.0279 33.7011 47.1764 35.9179 47.8014 38.6035C47.9869 39.414 48.1041 40.8691 47.9771 40.9472C47.9283 40.9765 46.6588 40.3027 45.1549 39.4433C43.6607 38.5937 42.274 37.8418 42.0885 37.7929C41.5709 37.6464 40.7115 37.6757 40.1744 37.8613C39.4908 38.0859 38.0846 39.4922 37.86 40.1757C37.6744 40.7324 37.6451 41.4843 37.8014 42.0312C37.86 42.2363 38.6022 43.6425 39.4615 45.1367C40.3111 46.6406 40.985 47.9199 40.9459 47.9785C40.8678 48.1054 39.442 47.998 38.6022 47.8027C35.8873 47.1679 33.7096 45.0488 32.9479 42.2754C32.8209 41.8261 32.7721 41.2988 32.7721 40.3808C32.7721 38.8672 32.9088 38.2519 33.5729 36.914C33.9537 36.123 34.1588 35.8496 34.9596 35.0488C36.1998 33.7988 37.4791 33.1054 39.0709 32.8222C39.7936 32.6855 41.6197 32.7734 42.3326 32.9687ZM9.47129 44.8339C9.47129 44.8925 3.38731 46.7675 3.33848 46.7285C3.30918 46.7089 4.54942 42.5683 5.09629 40.83L5.19395 40.5078L7.33262 42.6367C8.51426 43.8086 9.47129 44.8047 9.47129 44.8339Z"/>
</mask>
<path d="M7.99668 0.146446C7.58653 0.224571 7.13731 0.331993 7.00059 0.380821C6.66856 0.507774 6.40489 0.927696 6.41465 1.30856C6.42442 1.51363 7.06895 2.75387 8.38731 5.07809C9.47129 6.98238 10.3502 8.64254 10.3502 8.76949C10.3502 9.40426 9.39317 10.3515 8.73887 10.3515C8.59239 10.3515 7.06895 9.54098 5.05723 8.38863C2.59629 6.97262 1.53184 6.42574 1.29746 6.41598C0.516215 6.39645 0.135355 7.18746 0.0279333 9.09176C-0.157614 12.2949 1.2584 15.3808 3.80723 17.3046C4.61778 17.9199 6.17051 18.6816 7.17637 18.955C8.28965 19.248 10.2037 19.3164 11.3658 19.0918L12.2447 18.9355L14.9303 21.6211L17.6256 24.3164L10.7213 31.2207C4.23692 37.7148 3.817 38.164 3.68028 38.623C3.60215 38.8867 2.90879 41.1621 2.14707 43.6718C1.15098 46.9336 0.779886 48.3105 0.818949 48.4961C0.926371 48.8964 1.33653 49.2187 1.74668 49.2187C1.942 49.2089 4.31504 48.5351 7.02012 47.7148L11.942 46.2109L18.8365 39.3164L25.7311 32.4218L28.3971 35.0879L31.0729 37.7636L30.9166 38.5058C30.7018 39.5312 30.7213 41.2304 30.9459 42.3535C31.7369 46.1914 34.8522 49.1699 38.7584 49.8437C39.8912 50.039 40.8092 50.039 41.8932 49.8632C42.9381 49.6875 43.2115 49.58 43.4166 49.2578C43.7584 48.7402 43.6803 48.5547 41.6197 44.9121C40.5357 43.0078 39.6471 41.3476 39.6471 41.2207C39.6471 40.5957 40.6139 39.6484 41.2584 39.6484C41.4049 39.6484 42.9381 40.4589 44.94 41.6015C48.5924 43.6816 48.7877 43.7597 49.2955 43.3886C49.8717 42.9687 50.1549 40.664 49.8619 38.8574C49.3248 35.6738 47.401 33.0761 44.5201 31.6992C43.0357 30.9765 42.3229 30.83 40.4283 30.8203C39.3541 30.8105 38.6412 30.8593 38.2897 30.9472L37.7721 31.0839L35.0963 28.4082L32.4205 25.7324L39.3443 18.7988C43.1822 14.9511 46.4537 11.6113 46.6686 11.289C47.1471 10.5957 47.5377 9.42379 47.6158 8.45699C47.8307 5.81051 45.8775 3.21285 43.2018 2.57809C41.7857 2.24606 40.1158 2.52926 38.8463 3.32027C38.524 3.52535 35.692 6.27926 31.317 10.6347L24.315 17.6269L21.6295 14.9414L18.9439 12.2558L19.1002 11.4257C19.3346 10.1757 19.2467 8.14449 18.9049 6.99215C17.899 3.64254 15.3307 1.16207 11.9322 0.283165C10.9264 0.0194931 9.00254 -0.0488663 7.99668 0.146446ZM10.8775 2.09957C12.6354 2.40231 13.9732 3.12496 15.1939 4.42379C16.5318 5.83981 17.1568 7.34371 17.2545 9.32613C17.3814 12.0019 16.1217 14.5117 13.9342 15.957C12.4303 16.9433 10.9361 17.3535 9.22715 17.2461C7.70371 17.1582 6.51231 16.7578 5.31114 15.9375C4.73496 15.5468 3.73887 14.5703 3.34825 14.0039C2.93809 13.4277 2.43028 12.2949 2.24473 11.5722C2.01036 10.6738 1.8834 9.14059 2.02989 9.04293C2.07871 9.01363 3.32871 9.66793 4.79356 10.5078C6.24864 11.3476 7.62559 12.0898 7.84043 12.1679C8.35801 12.3535 9.23692 12.3437 9.81309 12.1484C10.4869 11.914 11.6588 10.7812 12.0201 10.0097C12.3424 9.3359 12.401 8.49606 12.1666 7.85152C12.0885 7.63668 11.3463 6.26949 10.5064 4.79488C9.6666 3.33004 9.01231 2.08981 9.0416 2.04098C9.11973 1.90426 9.93028 1.93356 10.8775 2.09957ZM43.3189 4.6777L43.7877 4.89254L25.9459 22.7343L8.1041 40.5761L7.12754 39.5996L6.15098 38.623L22.8209 21.9433C32.0006 12.7734 39.6666 5.15621 39.8619 5.01949C40.7799 4.38473 42.3033 4.22848 43.3189 4.6777ZM45.3697 6.70895C45.7799 7.67574 45.7115 8.91598 45.2037 9.86324C44.9693 10.3027 41.6686 13.6523 28.1725 27.1484L11.4244 43.8964L10.4479 42.9199L9.47129 41.9433L27.2643 24.1504C37.0592 14.3554 45.1061 6.34762 45.1451 6.34762C45.1842 6.34762 45.2916 6.50387 45.3697 6.70895ZM20.5846 16.6308L22.9479 18.9941L20.9654 20.9765L18.9928 22.9492L16.6002 20.5566C15.2916 19.248 14.2369 18.1543 14.2564 18.125C14.2857 18.1054 14.6373 17.8613 15.0475 17.5976C15.9166 17.0117 17.1764 15.7226 17.7232 14.873C17.9381 14.5312 18.1334 14.2578 18.1627 14.2578C18.192 14.2578 19.276 15.3222 20.5846 16.6308ZM33.4361 29.5019C34.7154 30.791 35.7408 31.8652 35.7213 31.875C35.7018 31.8847 35.3697 32.1093 34.9889 32.3632C34.0807 32.9492 32.8795 34.1699 32.3229 35.0488C32.0787 35.4297 31.8639 35.7422 31.8346 35.7422C31.8053 35.7422 30.7311 34.6875 29.442 33.3984L27.0982 31.0546L29.0514 29.1015C30.1256 28.0273 31.0338 27.1484 31.0631 27.1484C31.0924 27.1484 32.1666 28.2031 33.4361 29.5019ZM42.3326 32.9687C45.0279 33.7011 47.1764 35.9179 47.8014 38.6035C47.9869 39.414 48.1041 40.8691 47.9771 40.9472C47.9283 40.9765 46.6588 40.3027 45.1549 39.4433C43.6607 38.5937 42.274 37.8418 42.0885 37.7929C41.5709 37.6464 40.7115 37.6757 40.1744 37.8613C39.4908 38.0859 38.0846 39.4922 37.86 40.1757C37.6744 40.7324 37.6451 41.4843 37.8014 42.0312C37.86 42.2363 38.6022 43.6425 39.4615 45.1367C40.3111 46.6406 40.985 47.9199 40.9459 47.9785C40.8678 48.1054 39.442 47.998 38.6022 47.8027C35.8873 47.1679 33.7096 45.0488 32.9479 42.2754C32.8209 41.8261 32.7721 41.2988 32.7721 40.3808C32.7721 38.8672 32.9088 38.2519 33.5729 36.914C33.9537 36.123 34.1588 35.8496 34.9596 35.0488C36.1998 33.7988 37.4791 33.1054 39.0709 32.8222C39.7936 32.6855 41.6197 32.7734 42.3326 32.9687ZM9.47129 44.8339C9.47129 44.8925 3.38731 46.7675 3.33848 46.7285C3.30918 46.7089 4.54942 42.5683 5.09629 40.83L5.19395 40.5078L7.33262 42.6367C8.51426 43.8086 9.47129 44.8047 9.47129 44.8339Z" fill="#3D3D3D" stroke="white" stroke-width="0.6" mask="url(#path-1-inside-1_2307_26453)"/>
</g>
<defs>
<clipPath id="clip0_2307_26453">
<rect width="50" height="50" fill="white"/>
</clipPath>
</defs>
</svg>
